<svg width="25" height="24" viewBox="0 0 25 24" fill="none" xmlns="http://www.w3.org/2000/svg">
<mask id="mask0_1366_6605" style="mask-type:alpha" maskUnits="userSpaceOnUse" x="0" y="0" width="25" height="24">
<rect x="0.5" width="24" height="24" fill="#D9D9D9"/>
</mask>
<g mask="url(#mask0_1366_6605)">
<path d="M5.8077 20.5C5.30898 20.5 4.88302 20.3233 4.52982 19.9701C4.17661 19.6169 4 19.191 4 18.6923V12C4 10.8205 4.22308 9.71537 4.66925 8.6846C5.1154 7.65383 5.7218 6.75512 6.48845 5.98845C7.25512 5.2218 8.15383 4.6154 9.1846 4.16925C10.2154 3.72308 11.3205 3.5 12.5 3.5C13.6795 3.5 14.7846 3.72308 15.8154 4.16925C16.8461 4.6154 17.7448 5.2218 18.5115 5.98845C19.2782 6.75512 19.8846 7.65383 20.3307 8.6846C20.7769 9.71537 21 10.8205 21 12V18.6923C21 19.191 20.8233 19.6169 20.4701 19.9701C20.1169 20.3233 19.691 20.5 19.1923 20.5H17.7692C17.2705 20.5 16.8446 20.3233 16.4914 19.9701C16.1382 19.6169 15.9616 19.191 15.9616 18.6923V15.2308C15.9616 14.7321 16.1382 14.3061 16.4914 13.9529C16.8446 13.5997 17.2705 13.4231 17.7692 13.4231H19.5V12C19.5 10.05 18.8208 8.39581 17.4625 7.03748C16.1041 5.67914 14.45 4.99997 12.5 4.99997C10.55 4.99997 8.89581 5.67914 7.53748 7.03748C6.17914 8.39581 5.49997 10.05 5.49997 12V13.4231H7.23073C7.72944 13.4231 8.1554 13.5997 8.5086 13.9529C8.8618 14.3061 9.0384 14.7321 9.0384 15.2308V18.6923C9.0384 19.191 8.8618 19.6169 8.5086 19.9701C8.1554 20.3233 7.72944 20.5 7.23073 20.5H5.8077ZM5.8077 19H7.23073C7.32048 19 7.3942 18.9711 7.4519 18.9134C7.5096 18.8557 7.53845 18.782 7.53845 18.6923V15.2308C7.53845 15.141 7.5096 15.0673 7.4519 15.0096C7.3942 14.9519 7.32048 14.923 7.23073 14.923H5.49997V18.6923C5.49997 18.782 5.52883 18.8557 5.58653 18.9134C5.64423 18.9711 5.71795 19 5.8077 19ZM17.7692 19H19.1923C19.282 19 19.3557 18.9711 19.4134 18.9134C19.4711 18.8557 19.5 18.782 19.5 18.6923V14.923H17.7692C17.6795 14.923 17.6058 14.9519 17.5481 15.0096C17.4904 15.0673 17.4615 15.141 17.4615 15.2308V18.6923C17.4615 18.782 17.4904 18.8557 17.5481 18.9134C17.6058 18.9711 17.6795 19 17.7692 19ZM5.8077 19H5.49997H7.53845H5.8077ZM17.7692 19H17.4615H19.5H17.7692Z" fill="#1C1B1F"/>
</g>
</svg>
