<svg width="41" height="41" viewBox="0 0 41 41" fill="none" xmlns="http://www.w3.org/2000/svg">
<mask id="mask0_865_11319" style="mask-type:alpha" maskUnits="userSpaceOnUse" x="0" y="0" width="41" height="41">
<rect x="0.5" y="0.5" width="40" height="40" fill="#D9D9D9"/>
</mask>
<g mask="url(#mask0_865_11319)">
<path d="M26.4722 32.1668C25.7083 32.1668 25.0543 31.8948 24.5104 31.3509C23.9664 30.8069 23.6944 30.153 23.6944 29.3891V11.6112C23.6944 10.8474 23.9664 10.1934 24.5104 9.64945C25.0543 9.10548 25.7083 8.8335 26.4722 8.8335H28C28.7639 8.8335 29.4178 9.10548 29.9618 9.64945C30.5058 10.1934 30.7778 10.8474 30.7778 11.6112V29.3891C30.7778 30.153 30.5058 30.8069 29.9618 31.3509C29.4178 31.8948 28.7639 32.1668 28 32.1668H26.4722ZM12.9999 32.1668C12.2361 32.1668 11.5821 31.8948 11.0381 31.3509C10.4942 30.8069 10.2222 30.153 10.2222 29.3891V11.6112C10.2222 10.8474 10.4942 10.1934 11.0381 9.64945C11.5821 9.10548 12.2361 8.8335 12.9999 8.8335H14.5278C15.2916 8.8335 15.9456 9.10548 16.4895 9.64945C17.0335 10.1934 17.3055 10.8474 17.3055 11.6112V29.3891C17.3055 30.153 17.0335 30.8069 16.4895 31.3509C15.9456 31.8948 15.2916 32.1668 14.5278 32.1668H12.9999Z" fill="black"/>
</g>
</svg>
