<svg width="80" height="80" viewBox="0 0 80 80" fill="none" xmlns="http://www.w3.org/2000/svg">
<circle cx="40" cy="40" r="40" fill="#585858"/>
<circle cx="40" cy="40" r="34.5" stroke="white"/>
<path d="M27.992 38.28V41.64C30.344 41.64 32.456 41.528 34.968 41.128L35.096 42.2C32.504 42.632 30.328 42.728 27.864 42.728H26.68V37.224H31.96V34.232H26.632V33.16H33.288V38.28H27.992ZM36.312 31.816H37.624V46.2H36.312V31.816ZM52.6788 31.832V41.608H51.4148V31.832H52.6788ZM48.6148 40.28V36.184H46.3748V35.112H48.6148V32.152H49.8468V40.28H48.6148ZM47.6388 38.648L46.9188 39.64C45.6068 39.064 44.6628 37.992 44.1668 36.744C43.6548 38.088 42.6628 39.288 41.2868 39.912L40.5828 38.904C42.4388 38.072 43.5428 36.2 43.5428 34.568V32.696H44.8068V34.568C44.8068 36.216 45.8468 37.88 47.6388 38.648ZM48.6148 40.92V41.368C48.6148 43.208 50.9508 44.728 53.4948 45.096L52.9988 46.12C50.8228 45.768 48.8228 44.68 47.9588 43.112C47.0788 44.68 45.0788 45.768 42.9188 46.12L42.4228 45.096C44.9668 44.728 47.2868 43.208 47.2868 41.368V40.92H48.6148Z" fill="#ABABAB"/>
</svg>
