<svg width="21" height="24" viewBox="0 0 21 24" fill="none" xmlns="http://www.w3.org/2000/svg">
<path d="M16.5415 23.3333C15.7776 23.3333 15.1237 23.0613 14.5797 22.5174C14.0357 21.9734 13.7638 21.3195 13.7638 20.5556V2.77775C13.7638 2.01386 14.0357 1.35993 14.5797 0.815959C15.1237 0.271986 15.7776 0 16.5415 0H18.0693C18.8332 0 19.4871 0.271986 20.0311 0.815959C20.5751 1.35993 20.8471 2.01386 20.8471 2.77775V20.5556C20.8471 21.3195 20.5751 21.9734 20.0311 22.5174C19.4871 23.0613 18.8332 23.3333 18.0693 23.3333H16.5415ZM3.06925 23.3333C2.30539 23.3333 1.65146 23.0613 1.10746 22.5174C0.56349 21.9734 0.291504 21.3195 0.291504 20.5556V2.77775C0.291504 2.01386 0.56349 1.35993 1.10746 0.815959C1.65146 0.271986 2.30539 0 3.06925 0H4.59709C5.36098 0 6.01491 0.271986 6.55888 0.815959C7.10285 1.35993 7.37484 2.01386 7.37484 2.77775V20.5556C7.37484 21.3195 7.10285 21.9734 6.55888 22.5174C6.01491 23.0613 5.36098 23.3333 4.59709 23.3333H3.06925Z" fill="black"/>
</svg>
