<svg width="271" height="194" viewBox="0 0 271 194" fill="none" xmlns="http://www.w3.org/2000/svg">
<path d="M15.7809 19.58H13.4609V9.98H10.7409V8.02H13.4609V1.76H15.7809V19.58ZM9.98094 15.18H1.56094V3.2H3.86094V7.48H7.64094V3.16H9.98094V15.18ZM7.64094 13.34V9.32H3.86094V13.34H7.64094ZM32.0256 7.38H22.8256V8.52H32.5856V10.32H20.4856V2.66H32.4256V4.48H22.8256V5.6H32.0256V7.38ZM34.4656 13.4H18.3656V11.52H34.4656V13.4ZM32.6056 19.1H20.4056V14.28H22.7456V17.24H32.6056V19.1ZM51.7703 11.14H35.6703V9.28H51.7703V11.14ZM50.2903 19.5H37.5903V14.96H47.3303V13.94H37.6103V12.12H49.6503V16.6H39.9303V17.58H50.2903V19.5ZM39.8703 5.22C39.8703 6.02 41.2703 6.66 43.7503 6.66C46.2303 6.66 47.6503 6.02 47.6503 5.22C47.6503 4.4 46.2303 3.8 43.7503 3.8C41.2703 3.8 39.8703 4.4 39.8703 5.22ZM37.4503 5.22C37.4503 3.28 39.7103 2.02 43.7503 2.02C47.7703 2.02 50.0503 3.28 50.0503 5.22C50.0503 7.14 47.7703 8.42 43.7503 8.42C39.7103 8.42 37.4503 7.14 37.4503 5.22ZM72.9689 19.58H70.6289V1.76H72.9689V19.58ZM69.2889 13.78L67.9289 15.54C66.4689 14.64 64.6089 12.48 64.0089 10.62C63.4289 12.66 61.5889 14.92 59.7489 15.92L58.3289 14.2C61.2089 12.34 62.7489 9.52 62.7489 5.98V3.26H65.1689V5.86C65.1689 9.38 66.5889 12.04 69.2889 13.78ZM87.1336 18.76H84.9536V12.76H82.6936V10.86H84.9536V8.34H83.1336V6.44H84.9536V2.1H87.1336V18.76ZM90.6936 19.58H88.4736V1.76H90.6936V19.58ZM82.9536 3.86C82.9736 9.18 80.9536 13.24 76.6136 16.1L75.0936 14.48C78.5336 12.4 80.4136 9.28 80.6936 5.74H76.2136V3.86H82.9536ZM109.298 7.92H106.778V12.18H104.398V1.76H106.778V6H109.298V7.92ZM101.718 10.96H93.2783V2.76H95.5983V5.18H99.3583V2.72H101.718V10.96ZM99.3583 9.1V7H95.5983V9.1H99.3583ZM106.978 15.98C106.978 18.16 104.738 19.58 100.858 19.58C97.0183 19.58 94.7583 18.16 94.7583 15.98C94.7583 13.74 97.0183 12.36 100.858 12.36C104.738 12.36 106.978 13.74 106.978 15.98ZM100.858 14.22C98.5183 14.22 97.1783 14.9 97.1783 15.98C97.1783 17.04 98.5183 17.7 100.858 17.7C103.218 17.7 104.578 17.04 104.578 15.98C104.578 14.9 103.218 14.22 100.858 14.22ZM124.263 16.52C124.263 18.54 121.983 19.66 118.163 19.66C114.363 19.66 112.083 18.54 112.083 16.52C112.083 14.52 114.363 13.4 118.163 13.4C121.983 13.4 124.263 14.52 124.263 16.52ZM119.563 10.04C119.563 11.82 117.763 13 115.343 13C112.883 13 111.043 11.82 111.043 10.04C111.043 8.28 112.863 7.1 115.343 7.1C117.763 7.1 119.563 8.28 119.563 10.04ZM126.443 8.78V10.66H124.083V13.24H121.723V1.76H124.083V5.14H126.443V7.02H124.083V8.78H126.443ZM120.463 6.66H110.123V4.84H120.463V6.66ZM118.163 15.18C115.823 15.18 114.483 15.74 114.483 16.54C114.483 17.32 115.823 17.88 118.163 17.88C120.523 17.88 121.863 17.32 121.863 16.54C121.863 15.74 120.523 15.18 118.163 15.18ZM112.703 4.06V2.24H117.983V4.06H112.703ZM113.403 10.04C113.403 10.78 114.283 11.28 115.343 11.28C116.363 11.28 117.243 10.78 117.243 10.04C117.243 9.32 116.363 8.8 115.343 8.8C114.263 8.8 113.403 9.32 113.403 10.04ZM143.548 17.24H127.448V15.4H143.548V17.24ZM142.048 7.64C142.048 10.36 139.468 12.26 135.508 12.26C131.568 12.26 128.968 10.36 128.968 7.64C128.968 4.92 131.568 3.02 135.508 3.02C139.468 3.02 142.048 4.92 142.048 7.64ZM139.648 7.66C139.648 6.02 138.028 4.92 135.508 4.92C133.008 4.92 131.388 6.02 131.388 7.66C131.388 9.3 133.008 10.4 135.508 10.4C138.008 10.4 139.648 9.3 139.648 7.66ZM159.332 12.72H153.932V15.5H160.852V17.36H144.752V15.5H151.592V12.72H146.812V6.82H156.492V4.76H146.712V2.9H158.812V8.68H149.132V10.84H159.332V12.72ZM182.031 19.58H179.711V1.76H182.031V19.58ZM167.811 9.36C167.811 5.6 169.511 2.98 172.411 2.98C175.331 2.98 177.031 5.6 177.031 9.36C177.031 13.08 175.331 15.7 172.411 15.7C169.511 15.7 167.811 13.1 167.811 9.36ZM174.791 9.36C174.791 6.54 173.791 4.86 172.411 4.86C171.071 4.86 170.091 6.54 170.091 9.36C170.091 12.16 171.071 13.82 172.411 13.82C173.791 13.82 174.791 12.16 174.791 9.36ZM198.836 8.38H193.816V10.1H200.716V11.96H184.616V10.1H191.456V8.38H186.756V2.16H198.696V4.04H189.096V6.52H198.836V8.38ZM198.876 16.26C198.876 18.32 196.616 19.6 192.676 19.6C188.736 19.6 186.476 18.32 186.476 16.26C186.476 14.24 188.736 12.94 192.656 12.94C196.616 12.94 198.876 14.24 198.876 16.26ZM196.476 16.28C196.476 15.36 194.976 14.8 192.656 14.8C190.356 14.8 188.876 15.36 188.876 16.28C188.876 17.2 190.356 17.74 192.656 17.74C194.976 17.74 196.476 17.2 196.476 16.28ZM217.08 19.58H214.86V10.84H213.38V18.76H211.2V2.08H213.38V8.96H214.86V1.76H217.08V19.58ZM210.08 12.24C210.08 14.48 208.5 15.94 206.18 15.94C203.88 15.94 202.28 14.36 202.28 12.24C202.28 9.98 203.9 8.54 206.18 8.54C208.5 8.54 210.08 10 210.08 12.24ZM201.9 7.88V6.02H210.4V7.88H201.9ZM207.98 12.24C207.98 11.14 207.22 10.38 206.18 10.38C205.16 10.38 204.4 11.14 204.4 12.24C204.4 13.36 205.16 14.1 206.18 14.1C207.22 14.1 207.98 13.32 207.98 12.24ZM203.84 5V3.14H208.64V5H203.84ZM235.325 17.36H219.225V15.5H226.065V12.04H221.165V2.98H223.485V5.74H231.065V2.94H233.405V12.04H228.405V15.5H235.325V17.36ZM231.065 10.18V7.54H223.485V10.18H231.065ZM251.69 19.58H249.47V1.76H251.69V19.58ZM248.13 18.76H245.95V9.8H243.55V7.9H245.95V2.1H248.13V18.76ZM245.53 13.58L244.21 15.24C243.03 14.52 241.43 12.74 240.97 10.98C240.47 12.84 239.13 14.68 237.47 15.68L236.09 14.08C238.35 12.62 239.83 9.94 239.83 6.14V3.48H242.07V6.12C242.07 9.58 243.37 12.28 245.53 13.58ZM268.394 7.54C268.394 10.26 265.814 12.22 261.894 12.22C257.994 12.22 255.414 10.26 255.414 7.54C255.414 4.8 257.994 2.8 261.894 2.8C265.814 2.8 268.394 4.8 268.394 7.54ZM269.934 17.36H253.834V15.48H257.434V12.52L259.774 12.62V15.48H263.954V12.62L266.294 12.52V15.48H269.934V17.36ZM265.994 7.54C265.994 5.92 264.374 4.76 261.894 4.76C259.414 4.76 257.814 5.92 257.814 7.54C257.814 9.14 259.414 10.3 261.894 10.3C264.354 10.3 265.994 9.14 265.994 7.54Z" fill="white"/>
<g clip-path="url(#clip0_117_786)">
<path d="M189.985 151.331C189.978 151.295 189.973 151.258 189.967 151.22L189.963 151.194C189.675 149.252 190.019 145.274 190.326 141.712C190.527 139.389 190.711 137.257 190.71 136.422C190.704 133.356 190.419 130.476 189.744 127.509C189.067 124.529 187.991 121.448 186.404 117.989L179.295 102.498C179.282 102.471 179.259 102.44 179.248 102.413C178.508 101.212 176.036 101.996 175.876 102.048C175.787 102.078 175.699 102.106 175.61 102.125C173.591 102.759 173.517 103.622 173.464 104.237C173.319 105.932 173.206 107.247 170.957 107.947C170.863 107.976 170.769 108.004 170.674 108.022C170.017 108.179 169.262 108.198 168.538 107.946C167.63 107.629 166.884 106.991 166.511 105.888L165.245 102.145C164.99 101.39 164.454 100.81 163.796 100.485C163.135 100.158 162.349 100.083 161.596 100.338C160.433 100.732 159.489 101.336 159.031 102.107C158.704 102.658 158.629 103.381 158.932 104.277C159.437 105.77 158.91 107.02 157.964 107.825C157.605 108.13 157.194 108.354 156.77 108.484C156.336 108.618 155.871 108.666 155.416 108.618C154.276 108.497 153.216 107.854 152.726 106.551L149.814 100.928C149.719 100.744 149.643 100.556 149.596 100.363C149.47 100.099 149.097 99.975 148.644 99.9509C148.186 99.9266 147.676 99.992 147.16 100.128C146.603 100.274 146.07 100.49 145.61 100.754C144.91 101.157 144.375 101.553 144.402 101.73C144.438 101.899 144.461 102.066 144.463 102.233L145.227 110.159C145.405 111.155 145.138 112.051 144.617 112.749C144.27 113.214 143.804 113.58 143.282 113.816C142.759 114.053 142.174 114.161 141.591 114.11C140.692 114.031 139.816 113.605 139.177 112.736L111.825 75.5345C111.732 75.4079 111.628 75.2925 111.516 75.1887C111.096 74.8011 110.564 74.5892 110.023 74.5591C109.478 74.5289 108.925 74.6799 108.465 75.0182C108.346 75.1059 108.23 75.2094 108.12 75.3284C107.744 75.7361 107.53 76.2355 107.484 76.7427C107.438 77.2641 107.558 77.7988 107.852 78.2603L132.24 116.536C132.336 116.688 132.424 116.84 132.485 117.003C132.583 117.202 132.695 117.426 132.82 117.677C132.835 117.706 132.859 117.731 132.872 117.761C133.784 119.587 135.313 122.664 136.32 125.863C137.992 131.17 138.15 136.578 132.672 138.303C129.095 139.428 123.774 136.636 119.108 134.187C117.616 133.403 116.198 132.659 115.074 132.16C112.883 131.187 111.128 131.338 109.958 132.101C109.437 132.441 109.018 132.914 108.721 133.464C108.411 134.039 108.236 134.687 108.218 135.353C108.177 136.852 108.929 138.482 110.704 139.672C110.864 139.779 111.013 139.895 111.14 140.029C111.875 140.56 119.593 144.771 125.262 147.863C128.659 149.716 131.356 151.188 131.732 151.455C135.605 154.208 141.221 155.957 146.024 157.453C149.202 158.443 152.049 159.33 154.09 160.393C158.191 162.53 159.576 165.539 161.208 169.088L161.329 169.352L191.78 159.059C191.676 158.723 191.579 158.412 191.487 158.116C190.726 155.683 190.255 154.178 189.985 151.331ZM195.4 142.149C195.102 145.608 194.763 149.523 194.841 149.98C194.944 150.22 195.012 150.48 195.037 150.754C195.251 153.084 195.66 154.425 196.341 156.604C196.637 157.548 196.976 158.634 197.333 159.878C197.774 161.207 197.059 162.644 195.731 163.093L161.012 174.819C159.786 175.345 158.346 174.833 157.736 173.625C157.348 172.856 156.966 172.01 156.592 171.197C155.361 168.521 154.317 166.251 151.742 164.91C150.073 164.04 147.445 163.222 144.512 162.308C139.36 160.704 133.336 158.828 128.787 155.594C128.63 155.482 126.066 154.083 122.835 152.32C117.491 149.405 110.41 145.542 108.151 144.059C108.056 144.011 107.964 143.957 107.873 143.897C104.485 141.626 103.058 138.325 103.144 135.214C103.184 133.738 103.566 132.312 104.243 131.057C104.933 129.778 105.932 128.666 107.193 127.843C109.692 126.212 113.149 125.759 117.123 127.524C118.462 128.118 119.921 128.884 121.456 129.69C125.246 131.68 129.569 133.949 131.16 133.449C132.766 132.943 132.35 130.184 131.465 127.375C130.593 124.605 129.17 121.74 128.317 120.034C128.302 120.006 128.288 119.978 128.273 119.95C128.118 119.639 127.989 119.356 127.881 119.136L103.574 80.9862C102.661 79.5533 102.288 77.9049 102.43 76.305C102.575 74.6911 103.232 73.1296 104.38 71.8861C104.713 71.5248 105.076 71.2022 105.461 70.9192C106.897 69.8634 108.616 69.3912 110.302 69.4852C111.991 69.5793 113.648 70.2394 114.958 71.4479C115.306 71.7687 115.63 72.1298 115.924 72.5299L139.604 104.737L139.405 102.673C138.913 100.075 140.613 97.7776 143.083 96.357C143.948 95.8597 144.905 95.4659 145.867 95.2128C146.871 94.9488 147.911 94.8242 148.902 94.8768C151.405 95.0099 153.567 96.1624 154.428 98.7865L154.737 99.3838C155.868 97.5708 157.764 96.2673 159.964 95.5229C162.047 94.8186 164.218 95.0251 166.044 95.9282C167.656 96.7248 168.998 98.0615 169.776 99.791C170.596 98.8329 171.934 97.9411 174.148 97.2642C174.193 97.2464 174.24 97.2295 174.287 97.214C174.306 97.2076 181.039 94.9279 183.756 100.079C183.813 100.171 183.866 100.267 183.912 100.369L191.02 115.88C192.758 119.669 193.944 123.072 194.699 126.394C195.457 129.729 195.777 132.969 195.784 136.422C195.786 137.686 195.601 139.822 195.4 142.149ZM155.805 105.337L155.764 105.348Z" fill="white"/>
<path d="M117.349 58.8508C116.878 59.3714 116.918 60.1756 117.439 60.6469C117.959 61.1182 118.764 61.0781 119.235 60.5574L124.346 54.8783C124.817 54.3556 124.778 53.5489 124.255 53.0784C124.239 53.0635 124.222 53.0491 124.205 53.0352L118.578 47.9707C118.057 47.4994 117.253 47.5396 116.781 48.0602C116.31 48.5808 116.35 49.385 116.871 49.8563L121.608 54.1194L117.349 58.8508Z" fill="white"/>
<path d="M89.3206 71.8127C88.8866 72.362 88.9801 73.1595 89.5295 73.5935C90.0789 74.0275 90.8763 73.934 91.3103 73.3846C95.4064 68.1951 99.7381 63.574 104.561 60.2848C109.296 57.0553 114.518 55.112 120.48 55.193C121.181 55.2012 121.756 54.64 121.764 53.9394C121.772 53.2389 121.211 52.6642 120.51 52.656C113.969 52.5673 108.272 54.6777 103.128 58.1857C98.072 61.6341 93.5652 66.4351 89.3206 71.8127Z" fill="white"/>
<path d="M93.3686 131.874C93.9434 132.277 94.7366 132.138 95.1401 131.563C95.5436 130.989 95.4046 130.195 94.8298 129.792L88.5637 125.42C87.987 125.017 87.1912 125.155 86.7888 125.732C86.7758 125.751 86.7634 125.769 86.7516 125.788L82.4201 131.996C82.0166 132.571 82.1556 133.364 82.7304 133.768C83.3052 134.171 84.0984 134.032 84.5019 133.457L88.1484 128.231L93.3686 131.874Z" fill="white"/>
<path d="M107.954 159.766C108.522 160.175 109.315 160.046 109.724 159.477C110.134 158.908 110.004 158.116 109.436 157.706C104.077 153.84 99.2741 149.713 95.7788 145.036C92.3465 140.444 90.1787 135.312 90.0021 129.357C89.9829 128.656 89.3993 128.104 88.6988 128.123C87.9983 128.142 87.4459 128.726 87.4651 129.426C87.6592 135.971 90.0133 141.573 93.7393 146.558C97.4024 151.46 102.395 155.756 107.954 159.766Z" fill="white"/>
</g>
<defs>
<clipPath id="clip0_117_786">
<rect width="163" height="163" fill="white" transform="translate(54 31)"/>
</clipPath>
</defs>
</svg>
