<svg width="375" height="812" viewBox="0 0 375 812" fill="none" xmlns="http://www.w3.org/2000/svg">
<rect width="375" height="812" fill="#7A67F5"/>
<path d="M126.334 340.688V318.736H134.206C139.39 318.736 142.11 320.88 142.11 325.264C142.11 328.304 140.606 330 138.206 330.896V331.056L143.646 340.688H138.43L134.078 332.048H130.878V340.688H126.334ZM130.846 329.072H133.662C136.35 329.072 137.406 327.888 137.406 325.488C137.406 323.12 136.318 322.096 133.63 322.096H130.846V329.072ZM153.25 340.976C147.682 340.976 144.898 337.904 144.898 332.592V332.176C144.898 326.704 148.194 323.824 152.674 323.824C157.698 323.824 159.81 326.672 159.81 331.984V333.52H149.186C149.474 336.72 151.202 337.776 154.21 337.776C156.258 337.776 157.826 337.296 159.234 336.688V339.44C158.082 340.208 156.13 340.976 153.25 340.976ZM152.578 326.8C151.074 326.8 149.41 327.664 149.186 330.8H155.682C155.682 327.888 154.626 326.8 152.578 326.8ZM162.796 340.688V317.296H167.02V340.688H162.796ZM175.05 340.976C172.01 340.976 169.866 339.472 169.866 336.272C169.866 333.136 172.042 331.728 175.402 331.248L179.05 330.8V329.68C179.05 327.632 178.154 327.152 175.434 327.152C173.802 327.152 172.33 327.344 171.242 327.664V324.72C172.874 324.144 174.73 323.824 177.034 323.824C180.938 323.824 183.21 325.232 183.21 328.816V340.688H179.786L179.466 339.344H179.274C178.538 340.304 177.13 340.976 175.05 340.976ZM176.362 338.128C177.418 338.128 178.538 337.744 179.05 337.232V333.392L176.33 333.68C174.762 333.84 173.994 334.416 173.994 335.952C173.994 337.488 174.986 338.128 176.362 338.128ZM185.352 340.688L190.76 332.176L185.672 324.112H190.504L193.8 329.584L196.776 324.112H201.032L196.168 332.112L201.384 340.688H196.616L193.224 334.864L189.672 340.688H185.352ZM221.513 341.04C215.625 341.04 211.465 337.456 211.465 330.096V329.36C211.465 322.096 215.785 318.384 221.673 318.384C227.561 318.384 231.721 321.904 231.721 329.328V330.032C231.721 337.296 227.401 341.04 221.513 341.04ZM221.609 337.584C225.161 337.584 226.953 334.8 226.953 330.448V329.36C226.953 324.528 225.417 321.84 221.513 321.808C218.025 321.808 216.265 324.592 216.265 328.944V330.064C216.265 334.96 217.865 337.584 221.609 337.584ZM234.731 340.688V324.112H238.763V325.584H238.923C240.331 324.528 242.283 323.792 244.331 323.792C247.499 323.792 249.163 325.104 249.163 328.4V340.688H244.939V329.392C244.939 327.824 244.363 327.184 242.315 327.184C241.163 327.184 239.851 327.632 238.923 328.016V340.688H234.731Z" fill="white"/>
</svg>
