<svg width="20" height="33" viewBox="0 0 20 33" fill="none" xmlns="http://www.w3.org/2000/svg">
<circle cx="10" cy="10" r="10" fill="#7A67F5"/>
<mask id="mask0_118_826" style="mask-type:alpha" maskUnits="userSpaceOnUse" x="3" y="3" width="14" height="14">
<rect x="3" y="3" width="14" height="14" fill="#D9D9D9"/>
</mask>
<g mask="url(#mask0_118_826)">
<path d="M5.36071 7.6375L4.55862 7.27292C4.48084 7.23403 4.44196 7.17083 4.44196 7.08333C4.44196 6.99583 4.48084 6.93264 4.55862 6.89375L5.36071 6.52917L5.72529 5.72708C5.76418 5.64931 5.82737 5.61042 5.91487 5.61042C6.00237 5.61042 6.06557 5.64931 6.10446 5.72708L6.46904 6.52917L7.27112 6.89375C7.3489 6.93264 7.38779 6.99583 7.38779 7.08333C7.38779 7.17083 7.3489 7.23403 7.27112 7.27292L6.46904 7.6375L6.10446 8.43958C6.06557 8.51736 6.00237 8.55625 5.91487 8.55625C5.82737 8.55625 5.76418 8.51736 5.72529 8.43958L5.36071 7.6375ZM13.1336 6.28125L12.7253 6.09167C12.6475 6.05278 12.6086 5.99444 12.6086 5.91667C12.6086 5.83889 12.6475 5.78056 12.7253 5.74167L13.1336 5.55208L13.3232 5.14375C13.3621 5.06597 13.4204 5.02708 13.4982 5.02708C13.576 5.02708 13.6343 5.06597 13.6732 5.14375L13.8628 5.55208L14.2711 5.74167C14.3489 5.78056 14.3878 5.83889 14.3878 5.91667C14.3878 5.99444 14.3489 6.05278 14.2711 6.09167L13.8628 6.28125L13.6732 6.68958C13.6343 6.76736 13.576 6.80625 13.4982 6.80625C13.4204 6.80625 13.3621 6.76736 13.3232 6.68958L13.1336 6.28125ZM14.3003 8.61458L13.892 8.425C13.8142 8.38611 13.7753 8.32778 13.7753 8.25C13.7753 8.17222 13.8142 8.11389 13.892 8.075L14.3003 7.88542L14.4899 7.47708C14.5288 7.39931 14.5871 7.36042 14.6649 7.36042C14.7427 7.36042 14.801 7.39931 14.8399 7.47708L15.0295 7.88542L15.4378 8.075C15.5156 8.11389 15.5545 8.17222 15.5545 8.25C15.5545 8.32778 15.5156 8.38611 15.4378 8.425L15.0295 8.61458L14.8399 9.02292C14.801 9.10069 14.7427 9.13958 14.6649 9.13958C14.5871 9.13958 14.5288 9.10069 14.4899 9.02292L14.3003 8.61458ZM9.99821 11.75C9.5121 11.75 9.0989 11.5799 8.75862 11.2396C8.41835 10.8993 8.24821 10.4861 8.24821 10V6.5C8.24821 6.01389 8.41835 5.60069 8.75862 5.26042C9.0989 4.92014 9.5121 4.75 9.99821 4.75C10.4843 4.75 10.8975 4.92014 11.2378 5.26042C11.5781 5.60069 11.7482 6.01389 11.7482 6.5V10C11.7482 10.4861 11.5781 10.8993 11.2378 11.2396C10.8975 11.5799 10.4843 11.75 9.99821 11.75ZM9.99821 10.5833C10.1635 10.5833 10.302 10.5274 10.4138 10.4156C10.5256 10.3038 10.5815 10.1653 10.5815 10V6.5C10.5815 6.33472 10.5256 6.19618 10.4138 6.08437C10.302 5.97257 10.1635 5.91667 9.99821 5.91667C9.83293 5.91667 9.69439 5.97257 9.58258 6.08437C9.47078 6.19618 9.41487 6.33472 9.41487 6.5V10C9.41487 10.1653 9.47078 10.3038 9.58258 10.4156C9.69439 10.5274 9.83293 10.5833 9.99821 10.5833ZM9.99821 15.8333C9.83293 15.8333 9.69439 15.7774 9.58258 15.6656C9.47078 15.5538 9.41487 15.4153 9.41487 15.25V14.0396C8.51071 13.9132 7.74265 13.534 7.11071 12.9021C6.47876 12.2701 6.09473 11.5118 5.95862 10.6271C5.92946 10.4618 5.97321 10.316 6.08987 10.1896C6.20654 10.0632 6.36209 10 6.55654 10C6.69265 10 6.81418 10.051 6.92112 10.1531C7.02807 10.2552 7.09612 10.3792 7.12529 10.525C7.25168 11.2056 7.58223 11.7743 8.11696 12.2312C8.65168 12.6882 9.27876 12.9167 9.99821 12.9167C10.7177 12.9167 11.3447 12.6882 11.8795 12.2312C12.4142 11.7743 12.7447 11.2056 12.8711 10.525C12.9003 10.3792 12.9708 10.2552 13.0826 10.1531C13.1944 10.051 13.3183 10 13.4545 10C13.6392 10 13.7899 10.0632 13.9065 10.1896C14.0232 10.316 14.067 10.4618 14.0378 10.6271C13.9017 11.5118 13.5177 12.2701 12.8857 12.9021C12.2538 13.534 11.4857 13.9132 10.5815 14.0396V15.25C10.5815 15.4153 10.5256 15.5538 10.4138 15.6656C10.302 15.7774 10.1635 15.8333 9.99821 15.8333Z" fill="white"/>
</g>
<path d="M9.25766 32.72H3.11766V30.39H7.84766V29.85H3.10766V28.92H9.00766V31.24H4.28766V31.78H9.25766V32.72ZM7.24766 28.15C6.02766 28.39 3.66766 28.47 1.80766 28.47L1.65766 27.52H2.81766C2.73766 26.95 2.67766 26.38 2.60766 25.82C2.98766 25.79 3.36766 25.74 3.75766 25.7C3.77766 26.3 3.81766 26.89 3.85766 27.5C4.20766 27.49 4.55766 27.48 4.86766 27.46L4.96766 25.7C5.33766 25.74 5.70766 25.79 6.08766 25.81L5.88766 27.41C6.39766 27.37 6.82766 27.33 7.15766 27.27L7.24766 28.15ZM9.00766 28.46H7.84766V23.88H9.00766V28.46ZM6.90766 25.31H1.95766V24.39H6.90766V25.31ZM11.8 29.85C12.86 29.87 14.24 29.86 15.25 29.61L15.38 30.5C14.46 30.71 12.92 30.81 11.5 30.8L10.65 30.79V24.65H14.74V25.58H11.8V27.09H14.36V28.02H11.8V29.85ZM17.66 32.79H16.5V28.06H15.01V27.06H16.5V23.88H17.66V32.79Z" fill="#7A67F5"/>
</svg>
