<svg width="20" height="20" viewBox="0 0 20 20" fill="none" xmlns="http://www.w3.org/2000/svg">
<circle cx="10" cy="10" r="10" fill="#7A67F5"/>
<mask id="mask0_101_2030" style="mask-type:alpha" maskUnits="userSpaceOnUse" x="3" y="3" width="14" height="14">
<rect x="3" y="3" width="14" height="14" fill="#D9D9D9"/>
</mask>
<g mask="url(#mask0_101_2030)">
<path d="M5.36064 7.6375L4.55856 7.27292C4.48078 7.23403 4.44189 7.17083 4.44189 7.08333C4.44189 6.99583 4.48078 6.93264 4.55856 6.89375L5.36064 6.52917L5.72523 5.72708C5.76412 5.64931 5.82731 5.61042 5.91481 5.61042C6.00231 5.61042 6.06551 5.64931 6.10439 5.72708L6.46898 6.52917L7.27106 6.89375C7.34884 6.93264 7.38773 6.99583 7.38773 7.08333C7.38773 7.17083 7.34884 7.23403 7.27106 7.27292L6.46898 7.6375L6.10439 8.43958C6.06551 8.51736 6.00231 8.55625 5.91481 8.55625C5.82731 8.55625 5.76412 8.51736 5.72523 8.43958L5.36064 7.6375ZM13.1336 6.28125L12.7252 6.09167C12.6475 6.05278 12.6086 5.99444 12.6086 5.91667C12.6086 5.83889 12.6475 5.78056 12.7252 5.74167L13.1336 5.55208L13.3231 5.14375C13.362 5.06597 13.4204 5.02708 13.4981 5.02708C13.5759 5.02708 13.6343 5.06597 13.6731 5.14375L13.8627 5.55208L14.2711 5.74167C14.3488 5.78056 14.3877 5.83889 14.3877 5.91667C14.3877 5.99444 14.3488 6.05278 14.2711 6.09167L13.8627 6.28125L13.6731 6.68958C13.6343 6.76736 13.5759 6.80625 13.4981 6.80625C13.4204 6.80625 13.362 6.76736 13.3231 6.68958L13.1336 6.28125ZM14.3002 8.61458L13.8919 8.425C13.8141 8.38611 13.7752 8.32778 13.7752 8.25C13.7752 8.17222 13.8141 8.11389 13.8919 8.075L14.3002 7.88542L14.4898 7.47708C14.5287 7.39931 14.587 7.36042 14.6648 7.36042C14.7426 7.36042 14.8009 7.39931 14.8398 7.47708L15.0294 7.88542L15.4377 8.075C15.5155 8.11389 15.5544 8.17222 15.5544 8.25C15.5544 8.32778 15.5155 8.38611 15.4377 8.425L15.0294 8.61458L14.8398 9.02292C14.8009 9.10069 14.7426 9.13958 14.6648 9.13958C14.587 9.13958 14.5287 9.10069 14.4898 9.02292L14.3002 8.61458ZM9.99815 11.75C9.51203 11.75 9.09884 11.5799 8.75856 11.2396C8.41828 10.8993 8.24815 10.4861 8.24815 10V6.5C8.24815 6.01389 8.41828 5.60069 8.75856 5.26042C9.09884 4.92014 9.51203 4.75 9.99815 4.75C10.4843 4.75 10.8975 4.92014 11.2377 5.26042C11.578 5.60069 11.7481 6.01389 11.7481 6.5V10C11.7481 10.4861 11.578 10.8993 11.2377 11.2396C10.8975 11.5799 10.4843 11.75 9.99815 11.75ZM9.99815 10.5833C10.1634 10.5833 10.302 10.5274 10.4138 10.4156C10.5256 10.3038 10.5815 10.1653 10.5815 10V6.5C10.5815 6.33472 10.5256 6.19618 10.4138 6.08437C10.302 5.97257 10.1634 5.91667 9.99815 5.91667C9.83287 5.91667 9.69433 5.97257 9.58252 6.08437C9.47072 6.19618 9.41481 6.33472 9.41481 6.5V10C9.41481 10.1653 9.47072 10.3038 9.58252 10.4156C9.69433 10.5274 9.83287 10.5833 9.99815 10.5833ZM9.99815 15.8333C9.83287 15.8333 9.69433 15.7774 9.58252 15.6656C9.47072 15.5538 9.41481 15.4153 9.41481 15.25V14.0396C8.51064 13.9132 7.74259 13.534 7.11064 12.9021C6.4787 12.2701 6.09467 11.5118 5.95856 10.6271C5.92939 10.4618 5.97314 10.316 6.08981 10.1896C6.20648 10.0632 6.36203 10 6.55648 10C6.69259 10 6.81412 10.051 6.92106 10.1531C7.02801 10.2552 7.09606 10.3792 7.12523 10.525C7.25162 11.2056 7.58217 11.7743 8.1169 12.2312C8.65162 12.6882 9.2787 12.9167 9.99815 12.9167C10.7176 12.9167 11.3447 12.6882 11.8794 12.2312C12.4141 11.7743 12.7447 11.2056 12.8711 10.525C12.9002 10.3792 12.9707 10.2552 13.0825 10.1531C13.1943 10.051 13.3183 10 13.4544 10C13.6391 10 13.7898 10.0632 13.9065 10.1896C14.0231 10.316 14.0669 10.4618 14.0377 10.6271C13.9016 11.5118 13.5176 12.2701 12.8856 12.9021C12.2537 13.534 11.4856 13.9132 10.5815 14.0396V15.25C10.5815 15.4153 10.5256 15.5538 10.4138 15.6656C10.302 15.7774 10.1634 15.8333 9.99815 15.8333Z" fill="white"/>
</g>
</svg>
