<svg width="80" height="80" viewBox="0 0 80 80" fill="none" xmlns="http://www.w3.org/2000/svg">
<circle cx="40" cy="40" r="40" fill="#7A67F5"/>
<circle cx="40" cy="40" r="34.5" stroke="white"/>
<path d="M14.7666 43.328V32.592H17.8866C20.2546 32.592 21.4386 33.664 21.4386 35.6C21.4386 37.136 20.6706 38 19.3426 38.416V38.496L22.1906 43.328H20.7506L18.0786 38.72H16.0306V43.328H14.7666ZM16.0306 37.728H17.8066C19.4866 37.728 20.0946 37.008 20.0946 35.616C20.0946 34.288 19.4386 33.664 17.7906 33.664H16.0306V37.728ZM27.0726 43.472C24.5766 43.472 23.3126 41.952 23.3126 39.472V39.248C23.3126 36.48 24.9446 35.248 26.7686 35.248C28.9446 35.248 29.9686 36.512 29.9686 38.976V39.664H24.5606C24.6246 41.648 25.5686 42.416 27.2646 42.416C28.3206 42.416 29.0246 42.16 29.7446 41.824V42.736C29.2646 43.072 28.3526 43.472 27.0726 43.472ZM26.7366 36.24C25.7446 36.24 24.6886 36.816 24.5606 38.688H28.6886C28.6886 36.96 28.0326 36.24 26.7366 36.24ZM33.8246 43.456C32.7846 43.456 31.9206 43.264 31.2646 42.896V41.92C31.9526 42.176 32.5286 42.416 33.6486 42.416C34.9126 42.416 35.4246 41.968 35.4246 41.248C35.4246 40.512 35.0566 40.192 34.0486 39.904L33.2646 39.696C32.1126 39.376 31.3286 38.848 31.3286 37.504C31.3286 36.16 32.2086 35.248 34.0326 35.248C35.0886 35.248 35.7766 35.488 36.1926 35.712V36.704C35.7766 36.496 34.9766 36.288 34.0966 36.288C33.0246 36.288 32.4966 36.656 32.4966 37.392C32.4966 38.08 32.8326 38.368 33.6806 38.608L34.4806 38.832C36.0006 39.232 36.6246 39.744 36.6246 41.12C36.6246 42.624 35.5686 43.456 33.8246 43.456ZM40.8333 43.472C39.2812 43.472 38.4013 42.688 38.4013 41.152V35.392H39.6332V40.976C39.6332 42 40.0013 42.416 41.1693 42.416C42.0173 42.416 42.7213 42.112 43.3773 41.792V35.392H44.5933V43.328H43.5373L43.4253 42.608H43.3613C42.6413 43.104 41.7933 43.472 40.8333 43.472ZM46.9336 43.328V35.392H48.1016V36.08H48.1656C48.9016 35.616 49.7496 35.248 50.6456 35.248C51.5416 35.248 52.1816 35.536 52.5496 36.128H52.6136C53.4776 35.568 54.4056 35.248 55.3016 35.248C56.6776 35.248 57.4776 35.872 57.4776 37.408V43.328H56.2776V37.664C56.2776 36.704 55.8936 36.304 54.8216 36.304C54.1976 36.304 53.5256 36.544 52.7736 36.88C52.8056 37.072 52.8216 37.216 52.8216 37.408V43.328H51.6056V37.664C51.6056 36.704 51.2216 36.304 50.1656 36.304C49.4936 36.304 48.7896 36.576 48.1496 36.88V43.328H46.9336ZM63.0414 43.472C60.5454 43.472 59.2814 41.952 59.2814 39.472V39.248C59.2814 36.48 60.9134 35.248 62.7374 35.248C64.9134 35.248 65.9374 36.512 65.9374 38.976V39.664H60.5294C60.5934 41.648 61.5374 42.416 63.2334 42.416C64.2894 42.416 64.9934 42.16 65.7134 41.824V42.736C65.2334 43.072 64.3214 43.472 63.0414 43.472ZM62.7054 36.24C61.7134 36.24 60.6574 36.816 60.5294 38.688H64.6574C64.6574 36.96 64.0014 36.24 62.7054 36.24Z" fill="white"/>
</svg>
