<svg width="80" height="80" viewBox="0 0 80 80" fill="none" xmlns="http://www.w3.org/2000/svg">
<circle cx="40" cy="40" r="40" fill="#7A67F5"/>
<circle cx="40" cy="40" r="34.5" stroke="white"/>
<path d="M37.9963 42.592C37.9963 44.192 36.1243 45.072 33.0683 45.072C30.0283 45.072 28.1723 44.192 28.1723 42.592C28.1723 41.12 29.7723 40.256 32.4443 40.128V38.656H26.7643V37.648H39.3883V38.656H33.6603V40.128C36.3643 40.24 37.9963 41.104 37.9963 42.592ZM38.7323 35.744L38.1883 36.768C35.8523 36.384 33.7723 35.248 33.0683 33.968C32.5243 35.264 30.4283 36.416 27.9643 36.784L27.4203 35.76C29.5963 35.568 31.9963 34.528 32.3963 32.864H27.9483V31.872H38.1883V32.864H33.7883C34.2043 34.528 36.7963 35.568 38.7323 35.744ZM33.0683 41.12C30.8763 41.12 29.4203 41.6 29.4203 42.592C29.4203 43.616 30.8763 44.08 33.0683 44.08C35.2923 44.08 36.7483 43.616 36.7483 42.592C36.7483 41.6 35.2763 41.12 33.0683 41.12ZM53.472 36.208H51.344V41.28H50.128V31.136H51.344V35.184H53.472V36.208ZM51.888 44.64H42.656V40.368H43.888V43.632H51.888V44.64ZM42.304 38H42.992C44.928 38 47.392 37.808 48.736 37.536L48.848 38.528C47.296 38.8 44.64 39.008 42.224 39.008H41.088V32.384H47.504V33.408H42.304V38Z" fill="white"/>
</svg>
