<svg width="41" height="41" viewBox="0 0 41 41" fill="none" xmlns="http://www.w3.org/2000/svg">
<mask id="mask0_865_11323" style="mask-type:alpha" maskUnits="userSpaceOnUse" x="0" y="0" width="41" height="41">
<rect x="0.5" y="0.5" width="40" height="40" fill="#D9D9D9"/>
</mask>
<g mask="url(#mask0_865_11323)">
<path d="M6.94446 29.014C6.48151 29.3473 6.00467 29.3797 5.51392 29.1112C5.02319 28.8427 4.77783 28.4306 4.77783 27.8751V13.1251C4.77783 12.5695 5.02319 12.1598 5.51392 11.8959C6.00467 11.632 6.48151 11.6621 6.94446 11.9862L17.6945 19.3473C18.1204 19.6251 18.3334 20.0093 18.3334 20.5001C18.3334 20.9908 18.1204 21.3751 17.6945 21.6529L6.94446 29.014ZM23.8056 29.014C23.3426 29.3473 22.8658 29.3797 22.375 29.1112C21.8843 28.8427 21.639 28.4306 21.639 27.8751V13.1251C21.639 12.5695 21.8843 12.1598 22.375 11.8959C22.8658 11.632 23.3426 11.6621 23.8056 11.9862L34.5556 19.3473C34.9815 19.6251 35.1945 20.0093 35.1945 20.5001C35.1945 20.9908 34.9815 21.3751 34.5556 21.6529L23.8056 29.014Z" fill="black"/>
</g>
</svg>
