<svg width="17" height="18" viewBox="0 0 17 18" fill="none" xmlns="http://www.w3.org/2000/svg">
<path d="M1.8077 17.5C1.30898 17.5 0.883025 17.3233 0.529825 16.9701C0.176608 16.6169 0 16.191 0 15.6923V8.99998C0 7.82049 0.223083 6.71537 0.66925 5.6846C1.1154 4.65383 1.7218 3.75512 2.48845 2.98845C3.25512 2.2218 4.15383 1.6154 5.1846 1.16925C6.21537 0.723083 7.32049 0.5 8.49998 0.5C9.67946 0.5 10.7846 0.723083 11.8154 1.16925C12.8461 1.6154 13.7448 2.2218 14.5115 2.98845C15.2782 3.75512 15.8846 4.65383 16.3307 5.6846C16.7769 6.71537 17 7.82049 17 8.99998V15.6923C17 16.191 16.8233 16.6169 16.4701 16.9701C16.1169 17.3233 15.691 17.5 15.1923 17.5H13.7692C13.2705 17.5 12.8446 17.3233 12.4914 16.9701C12.1382 16.6169 11.9616 16.191 11.9616 15.6923V12.2308C11.9616 11.7321 12.1382 11.3061 12.4914 10.9529C12.8446 10.5997 13.2705 10.4231 13.7692 10.4231H15.5V8.99998C15.5 7.04997 14.8208 5.39581 13.4625 4.03748C12.1041 2.67914 10.45 1.99997 8.49998 1.99997C6.54997 1.99997 4.89581 2.67914 3.53748 4.03748C2.17914 5.39581 1.49997 7.04997 1.49997 8.99998V10.4231H3.23073C3.72944 10.4231 4.1554 10.5997 4.5086 10.9529C4.8618 11.3061 5.0384 11.7321 5.0384 12.2308V15.6923C5.0384 16.191 4.8618 16.6169 4.5086 16.9701C4.1554 17.3233 3.72944 17.5 3.23073 17.5H1.8077ZM1.8077 16H3.23073C3.32048 16 3.3942 15.9711 3.4519 15.9134C3.5096 15.8557 3.53845 15.782 3.53845 15.6923V12.2308C3.53845 12.141 3.5096 12.0673 3.4519 12.0096C3.3942 11.9519 3.32048 11.923 3.23073 11.923H1.49997V15.6923C1.49997 15.782 1.52883 15.8557 1.58653 15.9134C1.64423 15.9711 1.71795 16 1.8077 16ZM13.7692 16H15.1923C15.282 16 15.3557 15.9711 15.4134 15.9134C15.4711 15.8557 15.5 15.782 15.5 15.6923V11.923H13.7692C13.6795 11.923 13.6058 11.9519 13.5481 12.0096C13.4904 12.0673 13.4615 12.141 13.4615 12.2308V15.6923C13.4615 15.782 13.4904 15.8557 13.5481 15.9134C13.6058 15.9711 13.6795 16 13.7692 16ZM1.8077 16H1.49997H3.53845H1.8077ZM13.7692 16H13.4615H15.5H13.7692Z" fill="#1C1B1F"/>
</svg>
