<svg width="25" height="24" viewBox="0 0 25 24" fill="none" xmlns="http://www.w3.org/2000/svg">
<mask id="mask0_1366_6578" style="mask-type:alpha" maskUnits="userSpaceOnUse" x="0" y="0" width="25" height="24">
<rect x="0.5" width="24" height="24" fill="#D9D9D9"/>
</mask>
<g mask="url(#mask0_1366_6578)">
<path d="M6.49997 18.9998H9.84615V13.0575H15.1538V18.9998H18.5V9.99981L12.5 5.48058L6.49997 9.99981V18.9998ZM6.49997 20.4998C6.09101 20.4998 5.73877 20.352 5.44327 20.0565C5.14776 19.761 5 19.4088 5 18.9998V9.99981C5 9.76308 5.05296 9.5388 5.15887 9.32698C5.26477 9.11517 5.41117 8.94073 5.59807 8.80368L11.5981 4.28446C11.7365 4.18318 11.8808 4.10882 12.0309 4.06138C12.181 4.01395 12.3374 3.99023 12.5 3.99023C12.6626 3.99023 12.8189 4.01395 12.969 4.06138C13.1192 4.10882 13.2634 4.18318 13.4019 4.28446L19.4019 8.80368C19.5888 8.94073 19.7352 9.11517 19.8411 9.32698C19.947 9.5388 20 9.76308 20 9.99981V18.9998C20 19.4088 19.8522 19.761 19.5567 20.0565C19.2612 20.352 18.9089 20.4998 18.5 20.4998H13.6538V14.5575H11.3461V20.4998H6.49997Z" fill="#1C1B1F"/>
</g>
</svg>
