<svg width="21" height="20" viewBox="0 0 21 20" fill="none" xmlns="http://www.w3.org/2000/svg">
<path fill-rule="evenodd" clip-rule="evenodd" d="M12.5581 4.24556C12.8021 4.00148 13.1979 4.00148 13.4419 4.24556L15.3169 6.12056C15.561 6.36464 15.561 6.76036 15.3169 7.00444L13.4419 8.87944C13.1979 9.12352 12.8021 9.12352 12.5581 8.87944C12.314 8.63536 12.314 8.23964 12.5581 7.99556L13.3661 7.1875H6.12597C5.46337 7.18971 4.82852 7.45391 4.35997 7.92246C3.89141 8.39102 3.62721 9.02587 3.625 9.68848V10.3125C3.625 10.6577 3.34518 10.9375 3 10.9375C2.65482 10.9375 2.375 10.6577 2.375 10.3125V9.6875L2.375 9.68563C2.37797 8.69248 2.77381 7.74085 3.47608 7.03858C4.17835 6.33631 5.12998 5.94047 6.12313 5.9375L6.125 5.9375H13.3661L12.5581 5.12944C12.314 4.88536 12.314 4.48964 12.5581 4.24556ZM18 9.0625C18.3452 9.0625 18.625 9.34232 18.625 9.6875V10.3125L18.625 10.3144C18.622 11.3075 18.2262 12.2591 17.5239 12.9614C16.8216 13.6637 15.87 14.0595 14.8769 14.0625L14.875 14.0625H7.63388L8.44194 14.8706C8.68602 15.1146 8.68602 15.5104 8.44194 15.7544C8.19786 15.9985 7.80214 15.9985 7.55806 15.7544L5.68306 13.8794C5.43898 13.6354 5.43898 13.2396 5.68306 12.9956L7.55806 11.1206C7.80214 10.8765 8.19786 10.8765 8.44194 11.1206C8.68602 11.3646 8.68602 11.7604 8.44194 12.0044L7.63388 12.8125H14.8741C15.5367 12.8103 16.1715 12.5461 16.64 12.0775C17.1086 11.609 17.3728 10.974 17.375 10.3114V9.6875C17.375 9.34232 17.6548 9.0625 18 9.0625Z" fill="#1F1F1F"/>
</svg>
