<svg width="124" height="25" viewBox="0 0 124 25" fill="none" xmlns="http://www.w3.org/2000/svg">
<path d="M0.33375 23.688V1.736H8.20575C13.3898 1.736 16.1098 3.88 16.1098 8.264C16.1098 11.304 14.6058 13 12.2058 13.896V14.056L17.6458 23.688H12.4298L8.07775 15.048H4.87775V23.688H0.33375ZM4.84575 12.072H7.66175C10.3498 12.072 11.4058 10.888 11.4058 8.488C11.4058 6.12 10.3178 5.096 7.62975 5.096H4.84575V12.072ZM27.2503 23.976C21.6823 23.976 18.8983 20.904 18.8983 15.592V15.176C18.8983 9.704 22.1943 6.824 26.6743 6.824C31.6983 6.824 33.8103 9.672 33.8103 14.984V16.52H23.1863C23.4743 19.72 25.2023 20.776 28.2103 20.776C30.2583 20.776 31.8263 20.296 33.2343 19.688V22.44C32.0823 23.208 30.1303 23.976 27.2503 23.976ZM26.5783 9.8C25.0743 9.8 23.4103 10.664 23.1863 13.8H29.6823C29.6823 10.888 28.6263 9.8 26.5783 9.8ZM36.7958 23.688V0.296H41.0198V23.688H36.7958ZM49.0495 23.976C46.0095 23.976 43.8655 22.472 43.8655 19.272C43.8655 16.136 46.0415 14.728 49.4015 14.248L53.0495 13.8V12.68C53.0495 10.632 52.1535 10.152 49.4335 10.152C47.8015 10.152 46.3295 10.344 45.2415 10.664V7.72C46.8735 7.144 48.7295 6.824 51.0335 6.824C54.9375 6.824 57.2095 8.232 57.2095 11.816V23.688H53.7855L53.4655 22.344H53.2735C52.5375 23.304 51.1295 23.976 49.0495 23.976ZM50.3615 21.128C51.4175 21.128 52.5375 20.744 53.0495 20.232V16.392L50.3295 16.68C48.7615 16.84 47.9935 17.416 47.9935 18.952C47.9935 20.488 48.9855 21.128 50.3615 21.128ZM59.352 23.688L64.76 15.176L59.672 7.112H64.504L67.8 12.584L70.776 7.112H75.032L70.168 15.112L75.384 23.688H70.616L67.224 17.864L63.672 23.688H59.352ZM95.5133 24.04C89.6253 24.04 85.4653 20.456 85.4653 13.096V12.36C85.4653 5.096 89.7853 1.384 95.6733 1.384C101.561 1.384 105.721 4.904 105.721 12.328V13.032C105.721 20.296 101.401 24.04 95.5133 24.04ZM95.6093 20.584C99.1613 20.584 100.953 17.8 100.953 13.448V12.36C100.953 7.528 99.4173 4.84 95.5133 4.808C92.0253 4.808 90.2653 7.592 90.2653 11.944V13.064C90.2653 17.96 91.8653 20.584 95.6093 20.584ZM108.731 23.688V7.112H112.763V8.584H112.923C114.331 7.528 116.283 6.792 118.331 6.792C121.499 6.792 123.163 8.104 123.163 11.4V23.688H118.939V12.392C118.939 10.824 118.363 10.184 116.315 10.184C115.163 10.184 113.851 10.632 112.923 11.016V23.688H108.731Z" fill="white"/>
</svg>
