<svg width="271" height="193" viewBox="0 0 271 193" fill="none" xmlns="http://www.w3.org/2000/svg">
<path d="M15.7809 19.58H13.4609V9.98H10.7409V8.02H13.4609V1.76H15.7809V19.58ZM9.98094 15.18H1.56094V3.2H3.86094V7.48H7.64094V3.16H9.98094V15.18ZM7.64094 13.34V9.32H3.86094V13.34H7.64094ZM32.0256 7.38H22.8256V8.52H32.5856V10.32H20.4856V2.66H32.4256V4.48H22.8256V5.6H32.0256V7.38ZM34.4656 13.4H18.3656V11.52H34.4656V13.4ZM32.6056 19.1H20.4056V14.28H22.7456V17.24H32.6056V19.1ZM51.7703 11.14H35.6703V9.28H51.7703V11.14ZM50.2903 19.5H37.5903V14.96H47.3303V13.94H37.6103V12.12H49.6503V16.6H39.9303V17.58H50.2903V19.5ZM39.8703 5.22C39.8703 6.02 41.2703 6.66 43.7503 6.66C46.2303 6.66 47.6503 6.02 47.6503 5.22C47.6503 4.4 46.2303 3.8 43.7503 3.8C41.2703 3.8 39.8703 4.4 39.8703 5.22ZM37.4503 5.22C37.4503 3.28 39.7103 2.02 43.7503 2.02C47.7703 2.02 50.0503 3.28 50.0503 5.22C50.0503 7.14 47.7703 8.42 43.7503 8.42C39.7103 8.42 37.4503 7.14 37.4503 5.22ZM72.9689 19.58H70.6289V1.76H72.9689V19.58ZM69.2889 13.78L67.9289 15.54C66.4689 14.64 64.6089 12.48 64.0089 10.62C63.4289 12.66 61.5889 14.92 59.7489 15.92L58.3289 14.2C61.2089 12.34 62.7489 9.52 62.7489 5.98V3.26H65.1689V5.86C65.1689 9.38 66.5889 12.04 69.2889 13.78ZM87.1336 18.76H84.9536V12.76H82.6936V10.86H84.9536V8.34H83.1336V6.44H84.9536V2.1H87.1336V18.76ZM90.6936 19.58H88.4736V1.76H90.6936V19.58ZM82.9536 3.86C82.9736 9.18 80.9536 13.24 76.6136 16.1L75.0936 14.48C78.5336 12.4 80.4136 9.28 80.6936 5.74H76.2136V3.86H82.9536ZM109.298 7.92H106.778V12.18H104.398V1.76H106.778V6H109.298V7.92ZM101.718 10.96H93.2783V2.76H95.5983V5.18H99.3583V2.72H101.718V10.96ZM99.3583 9.1V7H95.5983V9.1H99.3583ZM106.978 15.98C106.978 18.16 104.738 19.58 100.858 19.58C97.0183 19.58 94.7583 18.16 94.7583 15.98C94.7583 13.74 97.0183 12.36 100.858 12.36C104.738 12.36 106.978 13.74 106.978 15.98ZM100.858 14.22C98.5183 14.22 97.1783 14.9 97.1783 15.98C97.1783 17.04 98.5183 17.7 100.858 17.7C103.218 17.7 104.578 17.04 104.578 15.98C104.578 14.9 103.218 14.22 100.858 14.22ZM124.263 16.52C124.263 18.54 121.983 19.66 118.163 19.66C114.363 19.66 112.083 18.54 112.083 16.52C112.083 14.52 114.363 13.4 118.163 13.4C121.983 13.4 124.263 14.52 124.263 16.52ZM119.563 10.04C119.563 11.82 117.763 13 115.343 13C112.883 13 111.043 11.82 111.043 10.04C111.043 8.28 112.863 7.1 115.343 7.1C117.763 7.1 119.563 8.28 119.563 10.04ZM126.443 8.78V10.66H124.083V13.24H121.723V1.76H124.083V5.14H126.443V7.02H124.083V8.78H126.443ZM120.463 6.66H110.123V4.84H120.463V6.66ZM118.163 15.18C115.823 15.18 114.483 15.74 114.483 16.54C114.483 17.32 115.823 17.88 118.163 17.88C120.523 17.88 121.863 17.32 121.863 16.54C121.863 15.74 120.523 15.18 118.163 15.18ZM112.703 4.06V2.24H117.983V4.06H112.703ZM113.403 10.04C113.403 10.78 114.283 11.28 115.343 11.28C116.363 11.28 117.243 10.78 117.243 10.04C117.243 9.32 116.363 8.8 115.343 8.8C114.263 8.8 113.403 9.32 113.403 10.04ZM143.548 17.24H127.448V15.4H143.548V17.24ZM142.048 7.64C142.048 10.36 139.468 12.26 135.508 12.26C131.568 12.26 128.968 10.36 128.968 7.64C128.968 4.92 131.568 3.02 135.508 3.02C139.468 3.02 142.048 4.92 142.048 7.64ZM139.648 7.66C139.648 6.02 138.028 4.92 135.508 4.92C133.008 4.92 131.388 6.02 131.388 7.66C131.388 9.3 133.008 10.4 135.508 10.4C138.008 10.4 139.648 9.3 139.648 7.66ZM159.332 12.72H153.932V15.5H160.852V17.36H144.752V15.5H151.592V12.72H146.812V6.82H156.492V4.76H146.712V2.9H158.812V8.68H149.132V10.84H159.332V12.72ZM182.031 19.58H179.711V1.76H182.031V19.58ZM167.811 9.36C167.811 5.6 169.511 2.98 172.411 2.98C175.331 2.98 177.031 5.6 177.031 9.36C177.031 13.08 175.331 15.7 172.411 15.7C169.511 15.7 167.811 13.1 167.811 9.36ZM174.791 9.36C174.791 6.54 173.791 4.86 172.411 4.86C171.071 4.86 170.091 6.54 170.091 9.36C170.091 12.16 171.071 13.82 172.411 13.82C173.791 13.82 174.791 12.16 174.791 9.36ZM198.836 8.38H193.816V10.1H200.716V11.96H184.616V10.1H191.456V8.38H186.756V2.16H198.696V4.04H189.096V6.52H198.836V8.38ZM198.876 16.26C198.876 18.32 196.616 19.6 192.676 19.6C188.736 19.6 186.476 18.32 186.476 16.26C186.476 14.24 188.736 12.94 192.656 12.94C196.616 12.94 198.876 14.24 198.876 16.26ZM196.476 16.28C196.476 15.36 194.976 14.8 192.656 14.8C190.356 14.8 188.876 15.36 188.876 16.28C188.876 17.2 190.356 17.74 192.656 17.74C194.976 17.74 196.476 17.2 196.476 16.28ZM217.08 19.58H214.86V10.84H213.38V18.76H211.2V2.08H213.38V8.96H214.86V1.76H217.08V19.58ZM210.08 12.24C210.08 14.48 208.5 15.94 206.18 15.94C203.88 15.94 202.28 14.36 202.28 12.24C202.28 9.98 203.9 8.54 206.18 8.54C208.5 8.54 210.08 10 210.08 12.24ZM201.9 7.88V6.02H210.4V7.88H201.9ZM207.98 12.24C207.98 11.14 207.22 10.38 206.18 10.38C205.16 10.38 204.4 11.14 204.4 12.24C204.4 13.36 205.16 14.1 206.18 14.1C207.22 14.1 207.98 13.32 207.98 12.24ZM203.84 5V3.14H208.64V5H203.84ZM235.325 17.36H219.225V15.5H226.065V12.04H221.165V2.98H223.485V5.74H231.065V2.94H233.405V12.04H228.405V15.5H235.325V17.36ZM231.065 10.18V7.54H223.485V10.18H231.065ZM251.69 19.58H249.47V1.76H251.69V19.58ZM248.13 18.76H245.95V9.8H243.55V7.9H245.95V2.1H248.13V18.76ZM245.53 13.58L244.21 15.24C243.03 14.52 241.43 12.74 240.97 10.98C240.47 12.84 239.13 14.68 237.47 15.68L236.09 14.08C238.35 12.62 239.83 9.94 239.83 6.14V3.48H242.07V6.12C242.07 9.58 243.37 12.28 245.53 13.58ZM268.394 7.54C268.394 10.26 265.814 12.22 261.894 12.22C257.994 12.22 255.414 10.26 255.414 7.54C255.414 4.8 257.994 2.8 261.894 2.8C265.814 2.8 268.394 4.8 268.394 7.54ZM269.934 17.36H253.834V15.48H257.434V12.52L259.774 12.62V15.48H263.954V12.62L266.294 12.52V15.48H269.934V17.36ZM265.994 7.54C265.994 5.92 264.374 4.76 261.894 4.76C259.414 4.76 257.814 5.92 257.814 7.54C257.814 9.14 259.414 10.3 261.894 10.3C264.354 10.3 265.994 9.14 265.994 7.54Z" fill="white"/>
<g clip-path="url(#clip0_1591_11576)">
<path d="M189.985 150.331C189.978 150.295 189.972 150.258 189.967 150.22L189.962 150.194C189.675 148.252 190.018 144.274 190.326 140.712C190.527 138.39 190.711 136.257 190.71 135.422C190.704 132.356 190.419 129.476 189.744 126.509C189.067 123.529 187.991 120.448 186.404 116.989L179.295 101.498C179.282 101.471 179.259 101.44 179.247 101.413C178.508 100.212 176.036 100.996 175.876 101.049C175.787 101.078 175.699 101.106 175.61 101.125C173.591 101.76 173.517 102.622 173.464 103.237C173.318 104.932 173.206 106.247 170.957 106.947C170.863 106.976 170.769 107.004 170.674 107.022C170.017 107.179 169.262 107.198 168.538 106.946C167.63 106.629 166.884 105.992 166.511 104.889L165.245 101.145C164.989 100.39 164.454 99.8105 163.796 99.485C163.135 99.1583 162.349 99.0836 161.596 99.3384C160.433 99.7319 159.489 100.336 159.031 101.108C158.704 101.658 158.629 102.381 158.932 103.277C159.437 104.77 158.91 106.02 157.964 106.825C157.605 107.13 157.194 107.354 156.77 107.485C156.336 107.618 155.871 107.667 155.416 107.618C154.276 107.497 153.216 106.854 152.726 105.552L149.814 99.9281C149.719 99.744 149.643 99.5563 149.596 99.3635C149.47 99.0996 149.097 98.9751 148.644 98.9511C148.186 98.9268 147.676 98.9921 147.16 99.1278C146.603 99.2743 146.07 99.4902 145.61 99.7546C144.91 100.157 144.374 100.554 144.402 100.73C144.438 100.899 144.461 101.067 144.463 101.233L145.227 109.159C145.405 110.155 145.138 111.051 144.617 111.749C144.27 112.214 143.804 112.58 143.282 112.816C142.758 113.053 142.174 113.162 141.591 113.11C140.691 113.031 139.815 112.605 139.177 111.736L111.825 74.5347C111.732 74.408 111.628 74.2926 111.515 74.1888C111.095 73.8012 110.564 73.5894 110.023 73.5593C109.478 73.529 108.925 73.6801 108.465 74.0183C108.346 74.106 108.23 74.2095 108.12 74.3285C107.744 74.7362 107.53 75.2357 107.484 75.7429C107.438 76.2642 107.558 76.7989 107.852 77.2605L132.239 115.536C132.336 115.688 132.424 115.841 132.485 116.003C132.583 116.202 132.694 116.426 132.82 116.677C132.835 116.706 132.858 116.731 132.872 116.761C133.784 118.587 135.313 121.664 136.32 124.863C137.991 130.17 138.15 135.579 132.672 137.304C129.094 138.429 123.774 135.636 119.108 133.187C117.616 132.404 116.198 131.659 115.074 131.16C112.883 130.187 111.128 130.338 109.958 131.101C109.437 131.441 109.018 131.914 108.72 132.465C108.411 133.039 108.236 133.687 108.218 134.353C108.176 135.853 108.929 137.482 110.704 138.672C110.864 138.779 111.013 138.895 111.14 139.029C111.875 139.56 119.593 143.771 125.262 146.863C128.659 148.716 131.356 150.188 131.732 150.455C135.605 153.209 141.221 154.958 146.024 156.454C149.201 157.443 152.049 158.33 154.09 159.393C158.191 161.53 159.575 164.539 161.208 168.088L161.329 168.352L191.78 158.06C191.676 157.724 191.579 157.412 191.487 157.116C190.725 154.683 190.255 153.178 189.985 150.331ZM195.4 141.15C195.101 144.608 194.763 148.523 194.841 148.981C194.944 149.22 195.012 149.48 195.037 149.754C195.251 152.085 195.66 153.425 196.341 155.604C196.637 156.549 196.976 157.634 197.333 158.878C197.774 160.207 197.059 161.644 195.731 162.093L161.012 173.819C159.786 174.345 158.346 173.833 157.736 172.625C157.348 171.856 156.966 171.01 156.592 170.198C155.361 167.521 154.316 165.251 151.742 163.91C150.073 163.04 147.445 162.222 144.512 161.309C139.36 159.704 133.336 157.828 128.787 154.594C128.63 154.482 126.066 153.083 122.834 151.321C117.491 148.405 110.41 144.542 108.151 143.059C108.056 143.012 107.963 142.958 107.873 142.897C104.484 140.626 103.058 137.325 103.144 134.214C103.184 132.738 103.566 131.312 104.243 130.057C104.933 128.779 105.932 127.666 107.192 126.843C109.692 125.212 113.149 124.759 117.123 126.524C118.462 127.119 119.92 127.884 121.456 128.69C125.246 130.68 129.569 132.949 131.16 132.449C132.766 131.943 132.35 129.185 131.465 126.375C130.593 123.605 129.17 120.741 128.317 119.034C128.302 119.006 128.287 118.978 128.273 118.95C128.118 118.639 127.989 118.356 127.881 118.136L103.574 79.9864C102.661 78.5534 102.288 76.9051 102.43 75.3052C102.574 73.6912 103.232 72.1298 104.38 70.8863C104.713 70.5249 105.076 70.2024 105.461 69.9193C106.897 68.8636 108.615 68.3914 110.302 68.4853C111.991 68.5794 113.648 69.2396 114.958 70.448C115.305 70.7688 115.63 71.1299 115.924 71.5301L139.604 103.738L139.405 101.673C138.913 99.0751 140.612 96.7778 143.083 95.3572C143.948 94.8599 144.905 94.466 145.867 94.2129C146.87 93.949 147.911 93.8243 148.902 93.877C151.405 94.0101 153.567 95.1626 154.428 97.7867L154.737 98.384C155.868 96.5709 157.764 95.2675 159.964 94.5231C162.047 93.8188 164.218 94.0252 166.044 94.9283C167.655 95.725 168.998 97.0616 169.776 98.7911C170.596 97.833 171.934 96.9412 174.148 96.2644C174.193 96.2465 174.239 96.2296 174.287 96.2141C174.306 96.2077 181.038 93.928 183.756 99.0787C183.813 99.1708 183.865 99.2675 183.912 99.3687L191.02 114.88C192.758 118.669 193.944 122.072 194.699 125.394C195.457 128.729 195.777 131.969 195.784 135.422C195.786 136.686 195.601 138.823 195.4 141.15ZM155.805 104.337L155.764 104.349L155.805 104.337Z" fill="white"/>
<path d="M117.349 57.8506C116.878 58.3712 116.918 59.1754 117.439 59.6467C117.959 60.118 118.764 60.0779 119.235 59.5573L124.346 53.8781C124.817 53.3554 124.778 52.5487 124.255 52.0782C124.239 52.0633 124.222 52.0489 124.205 52.035L118.578 46.9705C118.057 46.4992 117.253 46.5394 116.781 47.06C116.31 47.5806 116.35 48.3848 116.871 48.8561L121.608 53.1192L117.349 57.8506Z" fill="white"/>
<path d="M89.3205 70.8127C88.8865 71.362 88.98 72.1595 89.5293 72.5935C90.0787 73.0275 90.8761 72.934 91.3102 72.3846C95.4063 67.1951 99.738 62.574 104.561 59.2848C109.296 56.0553 114.518 54.112 120.48 54.193C121.181 54.2012 121.755 53.64 121.764 52.9394C121.772 52.2389 121.211 51.6642 120.51 51.656C113.969 51.5673 108.271 53.6777 103.128 57.1857C98.0718 60.6341 93.565 65.4351 89.3205 70.8127Z" fill="white"/>
<path d="M93.3685 130.874C93.9434 131.277 94.7365 131.138 95.14 130.563C95.5436 129.989 95.4045 129.195 94.8297 128.792L88.5636 124.42C87.987 124.017 87.1911 124.155 86.7887 124.732C86.7758 124.751 86.7634 124.769 86.7516 124.788L82.42 130.996C82.0165 131.571 82.1555 132.364 82.7303 132.768C83.3051 133.171 84.0983 133.032 84.5018 132.457L88.1483 127.231L93.3685 130.874Z" fill="white"/>
<path d="M107.954 158.766C108.522 159.175 109.315 159.046 109.724 158.477C110.134 157.908 110.004 157.116 109.436 156.706C104.077 152.84 99.2741 148.713 95.7788 144.036C92.3465 139.444 90.1787 134.312 90.0021 128.357C89.9829 127.656 89.3993 127.104 88.6988 127.123C87.9983 127.142 87.4459 127.726 87.4651 128.426C87.6592 134.971 90.0133 140.573 93.7393 145.558C97.4024 150.46 102.395 154.756 107.954 158.766Z" fill="white"/>
</g>
<defs>
<clipPath id="clip0_1591_11576">
<rect width="163" height="163" fill="white" transform="translate(54 30)"/>
</clipPath>
</defs>
</svg>
