<svg width="21" height="19" viewBox="0 0 21 19" fill="none" xmlns="http://www.w3.org/2000/svg">
<path d="M11.2501 9.69629V5.75012C11.2501 5.5373 11.1783 5.3591 11.0347 5.21552C10.8912 5.07193 10.713 5.00014 10.5001 5.00014C10.2873 5.00014 10.1091 5.07193 9.96554 5.21552C9.82196 5.3591 9.75017 5.5373 9.75017 5.75012V9.92707C9.75017 10.0476 9.77196 10.1623 9.81554 10.2713C9.85913 10.3803 9.92772 10.4815 10.0213 10.5751L12.9463 13.5001C13.0848 13.6386 13.2588 13.7094 13.4684 13.7126C13.678 13.7158 13.8553 13.645 14.0001 13.5001C14.145 13.3553 14.2174 13.1796 14.2174 12.9732C14.2174 12.7668 14.145 12.5912 14.0001 12.4463L11.2501 9.69629ZM10.5001 18.5001C9.32066 18.5001 8.21553 18.277 7.18477 17.8309C6.154 17.3847 5.25528 16.7783 4.48862 16.0117C3.72197 15.245 3.11557 14.3463 2.66942 13.3155C2.22325 12.2847 2.00017 11.1796 2.00017 10.0001C2.00017 8.82066 2.22325 7.71553 2.66942 6.68477C3.11557 5.654 3.72197 4.75528 4.48862 3.98862C5.25528 3.22197 6.154 2.61557 7.18477 2.16942C8.21553 1.72325 9.32066 1.50017 10.5001 1.50017C11.6796 1.50017 12.7848 1.72325 13.8155 2.16942C14.8463 2.61557 15.745 3.22197 16.5117 3.98862C17.2783 4.75528 17.8847 5.654 18.3309 6.68477C18.777 7.71553 19.0001 8.82066 19.0001 10.0001C19.0001 11.1796 18.777 12.2847 18.3309 13.3155C17.8847 14.3463 17.2783 15.245 16.5117 16.0117C15.745 16.7783 14.8463 17.3847 13.8155 17.8309C12.7848 18.277 11.6796 18.5001 10.5001 18.5001ZM0.915542 4.28092C0.770675 4.13605 0.698242 3.96041 0.698242 3.75399C0.698242 3.54759 0.770675 3.37196 0.915542 3.22709L3.72709 0.415542C3.86554 0.277092 4.03958 0.206267 4.24919 0.203067C4.45881 0.199851 4.63605 0.270676 4.78092 0.415542C4.92578 0.560426 4.99822 0.736067 4.99822 0.942467C4.99822 1.14887 4.92578 1.3245 4.78092 1.46937L1.96937 4.28092C1.83092 4.41937 1.65688 4.4902 1.44727 4.49342C1.23767 4.49662 1.06043 4.42578 0.915542 4.28092ZM20.0847 4.28092C19.9399 4.42578 19.7642 4.49822 19.5578 4.49822C19.3514 4.49822 19.1758 4.42578 19.0309 4.28092L16.2194 1.46937C16.0809 1.33092 16.0101 1.15688 16.0069 0.947267C16.0037 0.737667 16.0745 0.560426 16.2194 0.415542C16.3642 0.270676 16.5399 0.198242 16.7463 0.198242C16.9527 0.198242 17.1283 0.270676 17.2732 0.415542L20.0847 3.22709C20.2232 3.36554 20.294 3.53958 20.2972 3.74919C20.3004 3.95881 20.2296 4.13605 20.0847 4.28092ZM10.5001 17.0001C12.4437 17.0001 14.0963 16.3194 15.4578 14.9578C16.8194 13.5963 17.5001 11.9437 17.5001 10.0001C17.5001 8.05656 16.8194 6.40399 15.4578 5.04244C14.0963 3.68091 12.4437 3.00014 10.5001 3.00014C8.55656 3.00014 6.90399 3.68091 5.54244 5.04244C4.18091 6.40399 3.50014 8.05656 3.50014 10.0001C3.50014 11.9437 4.18091 13.5963 5.54244 14.9578C6.90399 16.3194 8.55656 17.0001 10.5001 17.0001Z" fill="#1C1B1F"/>
</svg>
