<svg width="31" height="19" viewBox="0 0 31 19" fill="none" xmlns="http://www.w3.org/2000/svg">
<path d="M28.1111 18.1805L17.3611 10.8194C16.9352 10.5416 16.7222 10.1573 16.7222 9.66659C16.7222 9.17584 16.9352 8.79157 17.3611 8.5138L28.1111 1.15271C28.5741 0.828628 29.0509 0.798532 29.5417 1.06242C30.0324 1.32631 30.2778 1.73603 30.2778 2.29159V17.0416C30.2778 17.5971 30.0324 18.0092 29.5417 18.2777C29.0509 18.5462 28.5741 18.5138 28.1111 18.1805ZM11.3889 18.1805L0.638917 10.8194C0.212973 10.5416 0 10.1573 0 9.66659C0 9.17584 0.212973 8.79157 0.638917 8.5138L11.3889 1.15271C11.8519 0.828628 12.3287 0.798532 12.8195 1.06242C13.3102 1.32631 13.5556 1.73603 13.5556 2.29159V17.0416C13.5556 17.5971 13.3102 18.0092 12.8195 18.2777C12.3287 18.5462 11.8519 18.5138 11.3889 18.1805Z" fill="black"/>
</svg>
