<svg width="80" height="80" viewBox="0 0 80 80" fill="none" xmlns="http://www.w3.org/2000/svg">
<circle cx="40" cy="40" r="40" fill="#7A67F5"/>
<circle cx="40" cy="40" r="34.5" stroke="white"/>
<path d="M26.68 43.52C25.368 43.52 24.344 43.2 23.624 42.8V41.728C24.44 42.144 25.496 42.432 26.632 42.432C28.28 42.432 29 41.664 29 40.496C29 39.392 28.472 38.944 27.176 38.528L26.136 38.16C24.632 37.664 23.784 36.896 23.784 35.264C23.784 33.6 24.888 32.416 27.128 32.416C28.392 32.416 29.144 32.72 29.736 33.008V34.08C29.112 33.792 28.264 33.488 27.08 33.488C25.768 33.488 25.032 34.128 25.032 35.152C25.032 36.176 25.416 36.624 26.632 37.04L27.688 37.376C29.272 37.92 30.28 38.592 30.28 40.4C30.28 42.272 29.192 43.52 26.68 43.52ZM34.7425 43.424C33.4945 43.424 32.6785 42.88 32.6785 41.536V36.416H31.5425V35.408H32.6785V33.52H33.8945V35.408H35.9265V36.416H33.8945V41.344C33.8945 42.112 34.1505 42.416 35.0625 42.416C35.3985 42.416 35.7665 42.368 36.0865 42.272V43.104C35.7665 43.248 35.4305 43.424 34.7425 43.424ZM39.7603 43.472C38.3203 43.472 37.2803 42.736 37.2803 41.248C37.2803 39.856 38.1763 39.12 39.6963 38.944L41.8403 38.688V37.856C41.8403 36.624 41.2963 36.304 39.8723 36.304C39.1043 36.304 38.4803 36.416 37.9843 36.56V35.68C38.6723 35.392 39.4403 35.248 40.3523 35.248C42.0963 35.248 43.0723 35.968 43.0723 37.584V43.328H42.0803L41.9523 42.64H41.8723C41.5043 43.088 40.8323 43.472 39.7603 43.472ZM40.0643 42.512C40.8003 42.512 41.5043 42.272 41.8403 41.936V39.6L40.0163 39.808C39.0403 39.904 38.5603 40.304 38.5603 41.216C38.5603 42.08 39.1523 42.512 40.0643 42.512ZM45.3711 43.328V35.392H46.5391V36.288H46.6191C47.0671 35.776 47.9311 35.312 48.8271 35.312C49.0031 35.312 49.2271 35.328 49.3071 35.344V36.448C49.0991 36.416 48.8591 36.4 48.7311 36.4C47.9311 36.4 47.1631 36.688 46.6031 37.088V43.328H45.3711ZM53.555 43.424C52.307 43.424 51.491 42.88 51.491 41.536V36.416H50.355V35.408H51.491V33.52H52.707V35.408H54.739V36.416H52.707V41.344C52.707 42.112 52.963 42.416 53.875 42.416C54.211 42.416 54.579 42.368 54.899 42.272V43.104C54.579 43.248 54.243 43.424 53.555 43.424Z" fill="white"/>
</svg>
