<svg width="41" height="41" viewBox="0 0 41 41" fill="none" xmlns="http://www.w3.org/2000/svg">
<mask id="mask0_865_11316" style="mask-type:alpha" maskUnits="userSpaceOnUse" x="0" y="0" width="41" height="41">
<rect x="0.5" y="0.5" width="40" height="40" fill="#D9D9D9"/>
</mask>
<g mask="url(#mask0_865_11316)">
<path d="M34.0418 29.014L23.2918 21.6529C22.8659 21.3751 22.6529 20.9908 22.6529 20.5001C22.6529 20.0093 22.8659 19.6251 23.2918 19.3473L34.0418 11.9862C34.5048 11.6621 34.9816 11.632 35.4723 11.8959C35.9631 12.1598 36.2085 12.5695 36.2085 13.1251V27.8751C36.2085 28.4306 35.9631 28.8427 35.4723 29.1112C34.9816 29.3797 34.5048 29.3473 34.0418 29.014ZM17.3196 29.014L6.56958 21.6529C6.14364 21.3751 5.93066 20.9908 5.93066 20.5001C5.93066 20.0093 6.14364 19.6251 6.56958 19.3473L17.3196 11.9862C17.7825 11.6621 18.2594 11.632 18.7501 11.8959C19.2409 12.1598 19.4862 12.5695 19.4862 13.1251V27.8751C19.4862 28.4306 19.2409 28.8427 18.7501 29.1112C18.2594 29.3797 17.7825 29.3473 17.3196 29.014Z" fill="black"/>
</g>
</svg>
