<svg width="25" height="33" viewBox="0 0 25 33" fill="none" xmlns="http://www.w3.org/2000/svg">
<circle cx="13" cy="10" r="10" fill="#7A67F5"/>
<mask id="mask0_118_814" style="mask-type:alpha" maskUnits="userSpaceOnUse" x="6" y="3" width="14" height="14">
<rect x="6" y="3" width="14" height="14" fill="#D9D9D9"/>
</mask>
<g mask="url(#mask0_118_814)">
<path d="M10.6667 13.5009C10.5014 13.5009 10.3628 13.445 10.251 13.3332C10.1392 13.2214 10.0833 13.0829 10.0833 12.9176V7.08427C10.0833 6.91899 10.1392 6.78045 10.251 6.66864C10.3628 6.55684 10.5014 6.50094 10.6667 6.50094C10.8319 6.50094 10.9705 6.55684 11.0823 6.66864C11.1941 6.78045 11.25 6.91899 11.25 7.08427V12.9176C11.25 13.0829 11.1941 13.2214 11.0823 13.3332C10.9705 13.445 10.8319 13.5009 10.6667 13.5009ZM13 15.8343C12.8347 15.8343 12.6962 15.7784 12.5844 15.6666C12.4726 15.5548 12.4167 15.4162 12.4167 15.2509V4.75094C12.4167 4.58566 12.4726 4.44712 12.5844 4.33531C12.6962 4.22351 12.8347 4.1676 13 4.1676C13.1653 4.1676 13.3038 4.22351 13.4156 4.33531C13.5274 4.44712 13.5833 4.58566 13.5833 4.75094V15.2509C13.5833 15.4162 13.5274 15.5548 13.4156 15.6666C13.3038 15.7784 13.1653 15.8343 13 15.8343ZM8.33333 11.1676C8.16806 11.1676 8.02951 11.1117 7.91771 10.9999C7.8059 10.8881 7.75 10.7495 7.75 10.5843V9.4176C7.75 9.25233 7.8059 9.11378 7.91771 9.00198C8.02951 8.89017 8.16806 8.83427 8.33333 8.83427C8.49861 8.83427 8.63715 8.89017 8.74896 9.00198C8.86076 9.11378 8.91667 9.25233 8.91667 9.4176V10.5843C8.91667 10.7495 8.86076 10.8881 8.74896 10.9999C8.63715 11.1117 8.49861 11.1676 8.33333 11.1676ZM15.3333 13.5009C15.1681 13.5009 15.0295 13.445 14.9177 13.3332C14.8059 13.2214 14.75 13.0829 14.75 12.9176V7.08427C14.75 6.91899 14.8059 6.78045 14.9177 6.66864C15.0295 6.55684 15.1681 6.50094 15.3333 6.50094C15.4986 6.50094 15.6372 6.55684 15.749 6.66864C15.8608 6.78045 15.9167 6.91899 15.9167 7.08427V12.9176C15.9167 13.0829 15.8608 13.2214 15.749 13.3332C15.6372 13.445 15.4986 13.5009 15.3333 13.5009ZM17.6667 11.1676C17.5014 11.1676 17.3628 11.1117 17.251 10.9999C17.1392 10.8881 17.0833 10.7495 17.0833 10.5843V9.4176C17.0833 9.25233 17.1392 9.11378 17.251 9.00198C17.3628 8.89017 17.5014 8.83427 17.6667 8.83427C17.8319 8.83427 17.9705 8.89017 18.0823 9.00198C18.1941 9.11378 18.25 9.25233 18.25 9.4176V10.5843C18.25 10.7495 18.1941 10.8881 18.0823 10.9999C17.9705 11.1117 17.8319 11.1676 17.6667 11.1676Z" fill="white"/>
</g>
<path d="M7.38148 26.88H4.93148V27.83H8.37148V28.76H0.321484V27.83H3.76148V26.88H1.40148V24.11H2.58148V25.95H7.38148V26.88ZM7.60148 32.66H1.06148V31.73H2.34148L2.13148 30.63L3.30148 30.51L3.45148 31.73H5.12148L5.41148 30.51L6.53148 30.7L6.25148 31.73H7.60148V32.66ZM7.52148 30.22H1.14148V29.3H7.52148V30.22ZM10.1238 29.28H16.0838V30.2H13.7238C13.8938 31.14 15.2638 31.95 16.5138 31.96L15.9538 32.87C14.7938 32.75 13.4238 31.88 13.0838 31.26C12.7638 31.89 11.4938 32.71 10.2138 32.85L9.64383 31.94C10.9238 31.94 12.3038 31.18 12.4838 30.2H10.1238V29.28ZM13.9138 27.04L14.0638 27.98C12.9138 28.26 11.2838 28.36 10.1938 28.36H9.30383V24.33H10.4738V27.37C11.7238 27.37 12.8238 27.28 13.9138 27.04ZM17.2038 26.79H15.9338V28.8H14.7538V23.88H15.9338V25.84H17.2038V26.79ZM24.9862 32.79H23.8262V23.88H24.9862V32.79ZM17.8762 27.68C17.8762 25.8 18.7262 24.49 20.1762 24.49C21.6362 24.49 22.4862 25.8 22.4862 27.68C22.4862 29.54 21.6362 30.85 20.1762 30.85C18.7262 30.85 17.8762 29.55 17.8762 27.68ZM21.3662 27.68C21.3662 26.27 20.8662 25.43 20.1762 25.43C19.5062 25.43 19.0162 26.27 19.0162 27.68C19.0162 29.08 19.5062 29.91 20.1762 29.91C20.8662 29.91 21.3662 29.08 21.3662 27.68Z" fill="#7A67F5"/>
</svg>
