<svg width="20" height="20" viewBox="0 0 20 20" fill="none" xmlns="http://www.w3.org/2000/svg">
<circle cx="10" cy="10" r="10" fill="#7A67F5"/>
<mask id="mask0_101_2018" style="mask-type:alpha" maskUnits="userSpaceOnUse" x="3" y="3" width="14" height="14">
<rect x="3" y="3" width="14" height="14" fill="#D9D9D9"/>
</mask>
<g mask="url(#mask0_101_2018)">
<path d="M7.66667 13.5009C7.50139 13.5009 7.36285 13.445 7.25104 13.3332C7.13924 13.2214 7.08333 13.0829 7.08333 12.9176V7.08424C7.08333 6.91896 7.13924 6.78042 7.25104 6.66861C7.36285 6.55681 7.50139 6.50091 7.66667 6.50091C7.83194 6.50091 7.97049 6.55681 8.08229 6.66861C8.1941 6.78042 8.25 6.91896 8.25 7.08424V12.9176C8.25 13.0829 8.1941 13.2214 8.08229 13.3332C7.97049 13.445 7.83194 13.5009 7.66667 13.5009ZM10 15.8342C9.83472 15.8342 9.69618 15.7783 9.58437 15.6665C9.47257 15.5547 9.41667 15.4162 9.41667 15.2509V4.75091C9.41667 4.58563 9.47257 4.44709 9.58437 4.33528C9.69618 4.22347 9.83472 4.16757 10 4.16757C10.1653 4.16757 10.3038 4.22347 10.4156 4.33528C10.5274 4.44709 10.5833 4.58563 10.5833 4.75091V15.2509C10.5833 15.4162 10.5274 15.5547 10.4156 15.6665C10.3038 15.7783 10.1653 15.8342 10 15.8342ZM5.33333 11.1676C5.16806 11.1676 5.02951 11.1117 4.91771 10.9999C4.8059 10.8881 4.75 10.7495 4.75 10.5842V9.41757C4.75 9.25229 4.8059 9.11375 4.91771 9.00195C5.02951 8.89014 5.16806 8.83424 5.33333 8.83424C5.49861 8.83424 5.63715 8.89014 5.74896 9.00195C5.86076 9.11375 5.91667 9.25229 5.91667 9.41757V10.5842C5.91667 10.7495 5.86076 10.8881 5.74896 10.9999C5.63715 11.1117 5.49861 11.1676 5.33333 11.1676ZM12.3333 13.5009C12.1681 13.5009 12.0295 13.445 11.9177 13.3332C11.8059 13.2214 11.75 13.0829 11.75 12.9176V7.08424C11.75 6.91896 11.8059 6.78042 11.9177 6.66861C12.0295 6.55681 12.1681 6.50091 12.3333 6.50091C12.4986 6.50091 12.6372 6.55681 12.749 6.66861C12.8608 6.78042 12.9167 6.91896 12.9167 7.08424V12.9176C12.9167 13.0829 12.8608 13.2214 12.749 13.3332C12.6372 13.445 12.4986 13.5009 12.3333 13.5009ZM14.6667 11.1676C14.5014 11.1676 14.3628 11.1117 14.251 10.9999C14.1392 10.8881 14.0833 10.7495 14.0833 10.5842V9.41757C14.0833 9.25229 14.1392 9.11375 14.251 9.00195C14.3628 8.89014 14.5014 8.83424 14.6667 8.83424C14.8319 8.83424 14.9705 8.89014 15.0823 9.00195C15.1941 9.11375 15.25 9.25229 15.25 9.41757V10.5842C15.25 10.7495 15.1941 10.8881 15.0823 10.9999C14.9705 11.1117 14.8319 11.1676 14.6667 11.1676Z" fill="white"/>
</g>
</svg>
