<svg width="25" height="24" viewBox="0 0 25 24" fill="none" xmlns="http://www.w3.org/2000/svg">
<mask id="mask0_1366_6610" style="mask-type:alpha" maskUnits="userSpaceOnUse" x="0" y="0" width="25" height="24">
<rect x="0.5" width="24" height="24" fill="#D9D9D9"/>
</mask>
<g mask="url(#mask0_1366_6610)">
<path d="M13.25 12.6963V8.75012C13.25 8.5373 13.1782 8.3591 13.0346 8.21552C12.891 8.07193 12.7128 8.00014 12.5 8.00014C12.2872 8.00014 12.109 8.07193 11.9654 8.21552C11.8218 8.3591 11.75 8.5373 11.75 8.75012V12.9271C11.75 13.0476 11.7718 13.1623 11.8154 13.2713C11.859 13.3803 11.9276 13.4815 12.0212 13.5751L14.9462 16.5001C15.0846 16.6386 15.2587 16.7094 15.4683 16.7126C15.6779 16.7158 15.8551 16.645 16 16.5001C16.1449 16.3553 16.2173 16.1796 16.2173 15.9732C16.2173 15.7668 16.1449 15.5912 16 15.4463L13.25 12.6963ZM12.5 21.5001C11.3205 21.5001 10.2154 21.277 9.18462 20.8309C8.15385 20.3847 7.25513 19.7783 6.48846 19.0117C5.72181 18.245 5.11541 17.3463 4.66926 16.3155C4.2231 15.2847 4.00001 14.1796 4.00001 13.0001C4.00001 11.8207 4.2231 10.7155 4.66926 9.68477C5.11541 8.654 5.72181 7.75528 6.48846 6.98862C7.25513 6.22197 8.15385 5.61557 9.18462 5.16942C10.2154 4.72325 11.3205 4.50017 12.5 4.50017C13.6795 4.50017 14.7846 4.72325 15.8154 5.16942C16.8461 5.61557 17.7448 6.22197 18.5115 6.98862C19.2782 7.75528 19.8846 8.654 20.3307 9.68477C20.7769 10.7155 21 11.8207 21 13.0001C21 14.1796 20.7769 15.2847 20.3307 16.3155C19.8846 17.3463 19.2782 18.245 18.5115 19.0117C17.7448 19.7783 16.8461 20.3847 15.8154 20.8309C14.7846 21.277 13.6795 21.5001 12.5 21.5001ZM2.91539 7.28092C2.77052 7.13605 2.69809 6.96041 2.69809 6.75399C2.69809 6.54759 2.77052 6.37196 2.91539 6.22709L5.72694 3.41554C5.86539 3.27709 6.03942 3.20627 6.24904 3.20307C6.45866 3.19985 6.6359 3.27068 6.78077 3.41554C6.92563 3.56043 6.99806 3.73607 6.99806 3.94247C6.99806 4.14887 6.92563 4.3245 6.78077 4.46937L3.96921 7.28092C3.83076 7.41937 3.65673 7.4902 3.44711 7.49342C3.23751 7.49662 3.06027 7.42578 2.91539 7.28092ZM22.0846 7.28092C21.9397 7.42578 21.7641 7.49822 21.5577 7.49822C21.3513 7.49822 21.1756 7.42578 21.0308 7.28092L18.2192 4.46937C18.0808 4.33092 18.0099 4.15688 18.0067 3.94727C18.0035 3.73767 18.0743 3.56043 18.2192 3.41554C18.3641 3.27068 18.5397 3.19824 18.7461 3.19824C18.9525 3.19824 19.1282 3.27068 19.273 3.41554L22.0846 6.22709C22.223 6.36554 22.2939 6.53958 22.2971 6.74919C22.3003 6.95881 22.2295 7.13605 22.0846 7.28092ZM12.5 20.0001C14.4436 20.0001 16.0961 19.3194 17.4577 17.9578C18.8192 16.5963 19.5 14.9437 19.5 13.0001C19.5 11.0566 18.8192 9.40399 17.4577 8.04244C16.0961 6.68091 14.4436 6.00014 12.5 6.00014C10.5564 6.00014 8.90384 6.68091 7.54229 8.04244C6.18076 9.40399 5.49999 11.0566 5.49999 13.0001C5.49999 14.9437 6.18076 16.5963 7.54229 17.9578C8.90384 19.3194 10.5564 20.0001 12.5 20.0001Z" fill="#1C1B1F"/>
</g>
</svg>
