<svg width="80" height="80" viewBox="0 0 80 80" fill="none" xmlns="http://www.w3.org/2000/svg">
<circle cx="40" cy="40" r="40" fill="#7A67F5"/>
<circle cx="40" cy="40" r="34.5" stroke="white"/>
<path d="M37.128 45.12H35.896V31.136H37.128V45.12ZM34.12 40.832L33.352 41.76C32.088 40.896 30.44 39.168 29.896 37.488C29.384 39.232 27.944 40.944 26.328 42.096L25.528 41.184C27.576 39.904 29.256 37.36 29.256 34.88V32.352H30.488V34.832C30.488 37.392 32.184 39.68 34.12 40.832ZM39.5318 33.168V32.144H47.1638V33.168H43.9798C43.9798 33.52 43.9798 33.792 43.9958 33.936C44.1078 35.728 45.7718 37.264 47.3718 37.792L46.6998 38.768C45.3558 38.224 43.9318 36.96 43.3558 35.696C42.9718 37.008 41.3398 38.512 39.8358 39.152L39.1318 38.208C40.8918 37.536 42.6678 35.776 42.7318 33.92C42.7318 33.792 42.7478 33.52 42.7478 33.168H39.5318ZM41.1798 40.176H50.2038V45.136H48.9878V41.184H41.1798V40.176ZM52.3158 35.936H50.1878V39.44H48.9718V31.136H50.1878V34.912H52.3158V35.936Z" fill="white"/>
</svg>
