<svg width="20" height="19" viewBox="0 0 20 19" fill="none" xmlns="http://www.w3.org/2000/svg">
<path d="M10.5519 9.49805V5.55188C10.5519 5.33906 10.4801 5.16086 10.3365 5.01727C10.1929 4.87369 10.0147 4.8019 9.8019 4.8019C9.58908 4.8019 9.41088 4.87369 9.2673 5.01727C9.12372 5.16086 9.05193 5.33906 9.05193 5.55188V9.72883C9.05193 9.84933 9.07372 9.96407 9.1173 10.0731C9.16088 10.182 9.22948 10.2833 9.32308 10.3769L12.2481 13.3019C12.3865 13.4403 12.5606 13.5112 12.7702 13.5144C12.9798 13.5176 13.157 13.4468 13.3019 13.3019C13.4468 13.157 13.5192 12.9814 13.5192 12.775C13.5192 12.5686 13.4468 12.3929 13.3019 12.2481L10.5519 9.49805ZM9.8019 18.3019C8.62242 18.3019 7.51729 18.0788 6.48653 17.6326C5.45576 17.1865 4.55704 16.5801 3.79037 15.8134C3.02372 15.0468 2.41733 14.148 1.97117 13.1173C1.52501 12.0865 1.30193 10.9814 1.30193 9.8019C1.30193 8.62242 1.52501 7.51729 1.97117 6.48653C2.41733 5.45576 3.02372 4.55704 3.79037 3.79038C4.55704 3.02373 5.45576 2.41733 6.48653 1.97118C7.51729 1.52501 8.62242 1.30193 9.8019 1.30193C10.9814 1.30193 12.0865 1.52501 13.1173 1.97118C14.148 2.41733 15.0468 3.02373 15.8134 3.79038C16.5801 4.55704 17.1865 5.45576 17.6326 6.48653C18.0788 7.51729 18.3019 8.62242 18.3019 9.8019C18.3019 10.9814 18.0788 12.0865 17.6326 13.1173C17.1865 14.148 16.5801 15.0468 15.8134 15.8134C15.0468 16.5801 14.148 17.1865 13.1173 17.6326C12.0865 18.0788 10.9814 18.3019 9.8019 18.3019ZM0.2173 4.08267C0.0724332 3.93781 0 3.76217 0 3.55575C0 3.34935 0.0724332 3.17372 0.2173 3.02885L3.02885 0.2173C3.1673 0.07885 3.34133 0.00802521 3.55095 0.00482521C3.76057 0.00160854 3.93781 0.0724334 4.08268 0.2173C4.22754 0.362183 4.29998 0.537825 4.29998 0.744225C4.29998 0.950625 4.22754 1.12626 4.08268 1.27113L1.27112 4.08267C1.13267 4.22112 0.958642 4.29196 0.749025 4.29518C0.539425 4.29838 0.362183 4.22754 0.2173 4.08267ZM19.3865 4.08267C19.2416 4.22754 19.066 4.29998 18.8596 4.29998C18.6532 4.29998 18.4775 4.22754 18.3327 4.08267L15.5211 1.27113C15.3827 1.13268 15.3118 0.958642 15.3086 0.749025C15.3054 0.539425 15.3763 0.362183 15.5211 0.2173C15.666 0.0724334 15.8416 0 16.0481 0C16.2545 0 16.4301 0.0724334 16.575 0.2173L19.3865 3.02885C19.525 3.1673 19.5958 3.34133 19.599 3.55095C19.6022 3.76057 19.5314 3.93781 19.3865 4.08267ZM9.8019 16.8019C11.7455 16.8019 13.3981 16.1211 14.7596 14.7596C16.1211 13.398 16.8019 11.7455 16.8019 9.8019C16.8019 7.85832 16.1211 6.20575 14.7596 4.8442C13.3981 3.48267 11.7455 2.8019 9.8019 2.8019C7.85832 2.8019 6.20575 3.48267 4.8442 4.8442C3.48267 6.20575 2.8019 7.85832 2.8019 9.8019C2.8019 11.7455 3.48267 13.398 4.8442 14.7596C6.20575 16.1211 7.85832 16.8019 9.8019 16.8019Z" fill="#1C1B1F"/>
</svg>
