<svg width="80" height="80" viewBox="0 0 80 80" fill="none" xmlns="http://www.w3.org/2000/svg">
<circle cx="40" cy="40" r="40" fill="#ADA4E8"/>
<circle cx="40" cy="40" r="34.5" stroke="white"/>
<path d="M21.376 43.328V32.592H24.496C26.864 32.592 28.048 33.664 28.048 35.6C28.048 37.136 27.28 38 25.952 38.416V38.496L28.8 43.328H27.36L24.688 38.72H22.64V43.328H21.376ZM22.64 37.728H24.416C26.096 37.728 26.704 37.008 26.704 35.616C26.704 34.288 26.048 33.664 24.4 33.664H22.64V37.728ZM33.682 43.472C31.186 43.472 29.922 41.952 29.922 39.472V39.248C29.922 36.48 31.554 35.248 33.378 35.248C35.554 35.248 36.578 36.512 36.578 38.976V39.664H31.17C31.234 41.648 32.178 42.416 33.874 42.416C34.93 42.416 35.634 42.16 36.354 41.824V42.736C35.874 43.072 34.962 43.472 33.682 43.472ZM33.346 36.24C32.354 36.24 31.298 36.816 31.17 38.688H35.298C35.298 36.96 34.642 36.24 33.346 36.24ZM40.434 43.456C39.394 43.456 38.53 43.264 37.874 42.896V41.92C38.562 42.176 39.138 42.416 40.258 42.416C41.522 42.416 42.034 41.968 42.034 41.248C42.034 40.512 41.666 40.192 40.658 39.904L39.874 39.696C38.722 39.376 37.938 38.848 37.938 37.504C37.938 36.16 38.818 35.248 40.642 35.248C41.698 35.248 42.386 35.488 42.802 35.712V36.704C42.386 36.496 41.586 36.288 40.706 36.288C39.634 36.288 39.106 36.656 39.106 37.392C39.106 38.08 39.442 38.368 40.29 38.608L41.09 38.832C42.61 39.232 43.234 39.744 43.234 41.12C43.234 42.624 42.178 43.456 40.434 43.456ZM48.3226 43.472C45.8266 43.472 44.5626 41.952 44.5626 39.472V39.248C44.5626 36.48 46.1946 35.248 48.0186 35.248C50.1946 35.248 51.2186 36.512 51.2186 38.976V39.664H45.8106C45.8746 41.648 46.8186 42.416 48.5146 42.416C49.5706 42.416 50.2746 42.16 50.9946 41.824V42.736C50.5146 43.072 49.6026 43.472 48.3226 43.472ZM47.9866 36.24C46.9946 36.24 45.9386 36.816 45.8106 38.688H49.9386C49.9386 36.96 49.2826 36.24 47.9866 36.24ZM55.6488 43.424C54.4008 43.424 53.5848 42.88 53.5848 41.536V36.416H52.4488V35.408H53.5848V33.52H54.8008V35.408H56.8328V36.416H54.8008V41.344C54.8008 42.112 55.0568 42.416 55.9688 42.416C56.3048 42.416 56.6727 42.368 56.9928 42.272V43.104C56.6727 43.248 56.3368 43.424 55.6488 43.424Z" fill="white"/>
</svg>
