<svg width="80" height="80" viewBox="0 0 80 80" fill="none" xmlns="http://www.w3.org/2000/svg">
<circle cx="40" cy="40" r="40" fill="#585858"/>
<circle cx="40" cy="40" r="34.5" stroke="white"/>
<path d="M21.3203 33.625H25.0859C25.9401 33.625 26.6615 33.7552 27.25 34.0156C27.8438 34.276 28.2943 34.6615 28.6016 35.1719C28.9141 35.6771 29.0703 36.2995 29.0703 37.0391C29.0703 37.5599 28.9635 38.0365 28.75 38.4688C28.5417 38.8958 28.2396 39.2604 27.8438 39.5625C27.4531 39.8594 26.9844 40.0807 26.4375 40.2266L26.0156 40.3906H22.4766L22.4609 39.1641H25.1328C25.6745 39.1641 26.125 39.0703 26.4844 38.8828C26.8438 38.6901 27.1146 38.4323 27.2969 38.1094C27.4792 37.7865 27.5703 37.4297 27.5703 37.0391C27.5703 36.6016 27.4844 36.2188 27.3125 35.8906C27.1406 35.5625 26.8698 35.3099 26.5 35.1328C26.1354 34.9505 25.6641 34.8594 25.0859 34.8594H22.8281V45H21.3203V33.625ZM27.9688 45L25.2031 39.8438L26.7734 39.8359L29.5781 44.9062V45H27.9688ZM34.4688 45.1562C33.8802 45.1562 33.3464 45.0573 32.8672 44.8594C32.3932 44.6562 31.9844 44.3724 31.6406 44.0078C31.3021 43.6432 31.0417 43.2109 30.8594 42.7109C30.6771 42.2109 30.5859 41.6641 30.5859 41.0703V40.7422C30.5859 40.0547 30.6875 39.4427 30.8906 38.9062C31.0938 38.3646 31.3698 37.9062 31.7188 37.5312C32.0677 37.1562 32.4635 36.8724 32.9062 36.6797C33.349 36.487 33.8073 36.3906 34.2812 36.3906C34.8854 36.3906 35.4062 36.4948 35.8438 36.7031C36.2865 36.9115 36.6484 37.2031 36.9297 37.5781C37.2109 37.9479 37.4193 38.3854 37.5547 38.8906C37.6901 39.3906 37.7578 39.9375 37.7578 40.5312V41.1797H31.4453V40H36.3125V39.8906C36.2917 39.5156 36.2135 39.151 36.0781 38.7969C35.9479 38.4427 35.7396 38.151 35.4531 37.9219C35.1667 37.6927 34.776 37.5781 34.2812 37.5781C33.9531 37.5781 33.651 37.6484 33.375 37.7891C33.099 37.9245 32.862 38.1276 32.6641 38.3984C32.4661 38.6693 32.3125 39 32.2031 39.3906C32.0938 39.7812 32.0391 40.2318 32.0391 40.7422V41.0703C32.0391 41.4714 32.0938 41.849 32.2031 42.2031C32.3177 42.5521 32.4818 42.8594 32.6953 43.125C32.9141 43.3906 33.1771 43.599 33.4844 43.75C33.7969 43.901 34.151 43.9766 34.5469 43.9766C35.0573 43.9766 35.4896 43.8724 35.8438 43.6641C36.1979 43.4557 36.5078 43.1771 36.7734 42.8281L37.6484 43.5234C37.4661 43.7995 37.2344 44.0625 36.9531 44.3125C36.6719 44.5625 36.3255 44.7656 35.9141 44.9219C35.5078 45.0781 35.026 45.1562 34.4688 45.1562ZM44.3672 42.7578C44.3672 42.5495 44.3203 42.3568 44.2266 42.1797C44.138 41.9974 43.9531 41.8333 43.6719 41.6875C43.3958 41.5365 42.9792 41.4062 42.4219 41.2969C41.9531 41.1979 41.5286 41.0807 41.1484 40.9453C40.7734 40.8099 40.4531 40.6458 40.1875 40.4531C39.9271 40.2604 39.7266 40.0339 39.5859 39.7734C39.4453 39.513 39.375 39.2083 39.375 38.8594C39.375 38.526 39.4479 38.2109 39.5938 37.9141C39.7448 37.6172 39.9557 37.3542 40.2266 37.125C40.5026 36.8958 40.8333 36.7161 41.2188 36.5859C41.6042 36.4557 42.0339 36.3906 42.5078 36.3906C43.1849 36.3906 43.763 36.5104 44.2422 36.75C44.7214 36.9896 45.0885 37.3099 45.3438 37.7109C45.599 38.1068 45.7266 38.5469 45.7266 39.0312H44.2812C44.2812 38.7969 44.2109 38.5703 44.0703 38.3516C43.9349 38.1276 43.7344 37.9427 43.4688 37.7969C43.2083 37.651 42.888 37.5781 42.5078 37.5781C42.1068 37.5781 41.7812 37.6406 41.5312 37.7656C41.2865 37.8854 41.1068 38.0391 40.9922 38.2266C40.8828 38.4141 40.8281 38.612 40.8281 38.8203C40.8281 38.9766 40.8542 39.1172 40.9062 39.2422C40.9635 39.362 41.0625 39.474 41.2031 39.5781C41.3438 39.6771 41.5417 39.7708 41.7969 39.8594C42.0521 39.9479 42.3776 40.0365 42.7734 40.125C43.4661 40.2812 44.0365 40.4688 44.4844 40.6875C44.9323 40.9062 45.2656 41.1745 45.4844 41.4922C45.7031 41.8099 45.8125 42.1953 45.8125 42.6484C45.8125 43.0182 45.7344 43.3568 45.5781 43.6641C45.4271 43.9714 45.2057 44.237 44.9141 44.4609C44.6276 44.6797 44.2839 44.8516 43.8828 44.9766C43.487 45.0964 43.0417 45.1562 42.5469 45.1562C41.8021 45.1562 41.1719 45.0234 40.6562 44.7578C40.1406 44.4922 39.75 44.1484 39.4844 43.7266C39.2188 43.3047 39.0859 42.8594 39.0859 42.3906H40.5391C40.5599 42.7865 40.6745 43.1016 40.8828 43.3359C41.0911 43.5651 41.3464 43.7292 41.6484 43.8281C41.9505 43.9219 42.25 43.9688 42.5469 43.9688C42.9427 43.9688 43.2734 43.9167 43.5391 43.8125C43.8099 43.7083 44.0156 43.5651 44.1562 43.3828C44.2969 43.2005 44.3672 42.9922 44.3672 42.7578ZM51.2188 45.1562C50.6302 45.1562 50.0964 45.0573 49.6172 44.8594C49.1432 44.6562 48.7344 44.3724 48.3906 44.0078C48.0521 43.6432 47.7917 43.2109 47.6094 42.7109C47.4271 42.2109 47.3359 41.6641 47.3359 41.0703V40.7422C47.3359 40.0547 47.4375 39.4427 47.6406 38.9062C47.8438 38.3646 48.1198 37.9062 48.4688 37.5312C48.8177 37.1562 49.2135 36.8724 49.6562 36.6797C50.099 36.487 50.5573 36.3906 51.0312 36.3906C51.6354 36.3906 52.1562 36.4948 52.5938 36.7031C53.0365 36.9115 53.3984 37.2031 53.6797 37.5781C53.9609 37.9479 54.1693 38.3854 54.3047 38.8906C54.4401 39.3906 54.5078 39.9375 54.5078 40.5312V41.1797H48.1953V40H53.0625V39.8906C53.0417 39.5156 52.9635 39.151 52.8281 38.7969C52.6979 38.4427 52.4896 38.151 52.2031 37.9219C51.9167 37.6927 51.526 37.5781 51.0312 37.5781C50.7031 37.5781 50.401 37.6484 50.125 37.7891C49.849 37.9245 49.612 38.1276 49.4141 38.3984C49.2161 38.6693 49.0625 39 48.9531 39.3906C48.8438 39.7812 48.7891 40.2318 48.7891 40.7422V41.0703C48.7891 41.4714 48.8438 41.849 48.9531 42.2031C49.0677 42.5521 49.2318 42.8594 49.4453 43.125C49.6641 43.3906 49.9271 43.599 50.2344 43.75C50.5469 43.901 50.901 43.9766 51.2969 43.9766C51.8073 43.9766 52.2396 43.8724 52.5938 43.6641C52.9479 43.4557 53.2578 43.1771 53.5234 42.8281L54.3984 43.5234C54.2161 43.7995 53.9844 44.0625 53.7031 44.3125C53.4219 44.5625 53.0755 44.7656 52.6641 44.9219C52.2578 45.0781 51.776 45.1562 51.2188 45.1562ZM59.7344 36.5469V37.6562H55.1641V36.5469H59.7344ZM56.7109 34.4922H58.1562V42.9062C58.1562 43.1927 58.2005 43.4089 58.2891 43.5547C58.3776 43.7005 58.4922 43.7969 58.6328 43.8438C58.7734 43.8906 58.9245 43.9141 59.0859 43.9141C59.2057 43.9141 59.3307 43.9036 59.4609 43.8828C59.5964 43.8568 59.6979 43.8359 59.7656 43.8203L59.7734 45C59.6589 45.0365 59.5078 45.0703 59.3203 45.1016C59.138 45.138 58.9167 45.1562 58.6562 45.1562C58.3021 45.1562 57.9766 45.0859 57.6797 44.9453C57.3828 44.8047 57.1458 44.5703 56.9688 44.2422C56.7969 43.9089 56.7109 43.4609 56.7109 42.8984V34.4922Z" fill="#ABABAB"/>
</svg>
