<svg width="80" height="80" viewBox="0 0 80 80" fill="none" xmlns="http://www.w3.org/2000/svg">
<circle cx="40" cy="40" r="40" fill="#999999"/>
<circle cx="40" cy="40" r="34.5" stroke="white"/>
<path d="M35.88 31.136H37.096V45.12H35.88V31.136ZM34.6 40.304L34.712 41.312C33.256 41.536 30.856 41.776 27.784 41.776H26.36V36.384H31.656V33.44H26.296V32.432H32.888V37.392H27.576V40.736H27.912C30.136 40.736 32.904 40.608 34.6 40.304ZM51.2438 40.416H50.0278V31.136H51.2438V40.416ZM48.5878 39.04H47.4198V35.44H45.3238V34.432H47.4198V31.392H48.5878V39.04ZM51.9638 44.288L51.2758 45.296C49.6118 44.96 47.2438 43.488 46.5398 41.952C45.9798 43.44 43.7718 44.848 41.8198 45.264L41.1318 44.272C43.2918 44 45.9478 42.256 45.9478 40.288V39.792H47.2278V40.288C47.2278 42.304 49.8998 43.984 51.9638 44.288ZM46.4918 37.904L45.7878 38.8C44.7638 38.272 43.4518 37.04 43.0518 35.952C42.6838 37.104 41.6278 38.464 40.2038 39.28L39.4518 38.368C41.1638 37.52 42.4278 35.792 42.4278 33.776V32.192H43.6118V33.744C43.6118 35.792 45.1318 37.2 46.4918 37.904Z" fill="white"/>
</svg>
