<svg width="80" height="80" viewBox="0 0 80 80" fill="none" xmlns="http://www.w3.org/2000/svg">
<circle cx="40" cy="40" r="40" fill="#7A67F5"/>
<circle cx="40" cy="40" r="34.5" stroke="white"/>
<path d="M27.3293 37.688L26.8653 36.648C29.3773 36.36 31.6653 35.128 31.7773 33.544H27.3293V32.488H37.9373V33.544H33.4733C33.5853 35.128 35.8733 36.36 38.3853 36.648L37.9213 37.688C35.5693 37.4 33.4253 36.344 32.6253 34.76C31.8413 36.344 29.6813 37.4 27.3293 37.688ZM36.1933 43.64C36.1933 42.68 34.8493 42.136 32.6093 42.136C30.3533 42.136 29.0253 42.68 29.0253 43.64C29.0253 44.6 30.3533 45.16 32.6093 45.16C34.8493 45.16 36.1933 44.6 36.1933 43.64ZM39.1053 39.608H33.2812V41.144C35.9533 41.272 37.5213 42.152 37.5213 43.64C37.5213 45.272 35.6813 46.168 32.6253 46.168C29.5533 46.168 27.6973 45.272 27.6973 43.64C27.6973 42.152 29.2812 41.272 31.9533 41.144V39.608H26.1293V38.552H39.1053V39.608ZM49.152 38.12L49.296 39.176C47.328 39.576 45.632 39.672 42.624 39.672H41.504V33.08H47.856V34.136H42.816V38.6C45.648 38.6 47.28 38.488 49.152 38.12ZM44.368 41.176V44.792H52.624V45.864H43.056V41.176H44.368ZM51.984 36.088H54.112V37.176H51.984V42.216H50.672V31.832H51.984V36.088Z" fill="white"/>
</svg>
