<svg width="30" height="30" viewBox="0 0 30 30" fill="none" xmlns="http://www.w3.org/2000/svg">
<path d="M24.0914 5.71055C21.5877 3.27305 18.2742 1.875 15 1.875C11.7258 1.875 8.4123 3.27305 5.90859 5.71055C3.30762 8.24238 1.875 11.543 1.875 15C1.875 16.5627 2.3877 18.5795 3.80156 22.3564C5.21543 26.1334 8.02734 27.7148 9.21504 27.9732C9.55547 28.0477 9.95449 28.125 10.3125 28.125C10.9294 28.1255 11.5356 27.9639 12.0703 27.6563L12.8906 27.1875C13.7736 26.6707 14.0314 25.5393 13.5234 24.6475L8.43047 15.7078C8.30911 15.4939 8.14651 15.3062 7.9521 15.1556C7.75769 15.0049 7.53532 14.8944 7.29787 14.8303C7.06043 14.7662 6.81262 14.7498 6.56882 14.7822C6.32501 14.8145 6.09005 14.895 5.87754 15.0188L5.07539 15.4875C4.76709 15.6681 4.49007 15.8974 4.25508 16.1666C4.22591 16.2008 4.18751 16.2259 4.14447 16.2389C4.10142 16.2519 4.05554 16.2523 4.01231 16.2399C3.96907 16.2276 3.9303 16.2031 3.90062 16.1693C3.87094 16.1355 3.85161 16.0939 3.84492 16.0494C3.78586 15.7026 3.75412 15.3518 3.75 15C3.75 12.0521 4.98047 9.22969 7.21641 7.0541C9.375 4.9541 12.2104 3.75 15 3.75C17.7896 3.75 20.625 4.9541 22.7836 7.0541C25.0195 9.22969 26.25 12.0521 26.25 15C26.2447 15.3518 26.2118 15.7027 26.1516 16.0494C26.1449 16.0939 26.1255 16.1355 26.0959 16.1693C26.0662 16.2031 26.0274 16.2276 25.9842 16.2399C25.9409 16.2523 25.8951 16.2519 25.852 16.2389C25.809 16.2259 25.7706 16.2008 25.7414 16.1666C25.5064 15.8974 25.2294 15.6681 24.9211 15.4875L24.1189 15.0188C23.9064 14.895 23.6715 14.8145 23.4277 14.7822C23.1839 14.7498 22.9361 14.7662 22.6986 14.8303C22.4612 14.8944 22.2388 15.0049 22.0444 15.1556C21.85 15.3062 21.6874 15.4939 21.566 15.7078L16.4766 24.6475C15.9686 25.5393 16.2264 26.6707 17.1094 27.1875L17.9297 27.6563C18.4644 27.9639 19.0706 28.1255 19.6875 28.125C20.0455 28.125 20.4445 28.0477 20.785 27.9732C21.9727 27.7148 24.7852 26.1328 26.1984 22.3564C27.6117 18.5801 28.125 16.5627 28.125 15C28.125 11.543 26.6924 8.24238 24.0914 5.71055Z" fill="#1F1F1F"/>
</svg>
