<svg width="17" height="17" viewBox="0 0 17 17" fill="none" xmlns="http://www.w3.org/2000/svg">
<path d="M1.8077 17C1.30898 17 0.883025 16.8233 0.529825 16.4701C0.176608 16.1169 0 15.691 0 15.1923V8.49998C0 7.32049 0.223083 6.21537 0.66925 5.1846C1.1154 4.15383 1.7218 3.25512 2.48845 2.48845C3.25512 1.7218 4.15383 1.1154 5.1846 0.66925C6.21537 0.223083 7.32049 0 8.49998 0C9.67946 0 10.7846 0.223083 11.8154 0.66925C12.8461 1.1154 13.7448 1.7218 14.5115 2.48845C15.2782 3.25512 15.8846 4.15383 16.3307 5.1846C16.7769 6.21537 17 7.32049 17 8.49998V15.1923C17 15.691 16.8233 16.1169 16.4701 16.4701C16.1169 16.8233 15.691 17 15.1923 17H13.7692C13.2705 17 12.8446 16.8233 12.4914 16.4701C12.1382 16.1169 11.9616 15.691 11.9616 15.1923V11.7308C11.9616 11.2321 12.1382 10.8061 12.4914 10.4529C12.8446 10.0997 13.2705 9.92308 13.7692 9.92308H15.5V8.49998C15.5 6.54998 14.8208 4.89581 13.4625 3.53748C12.1041 2.17914 10.45 1.49997 8.49998 1.49997C6.54998 1.49997 4.89581 2.17914 3.53748 3.53748C2.17914 4.89581 1.49997 6.54998 1.49997 8.49998V9.92308H3.23073C3.72944 9.92308 4.1554 10.0997 4.5086 10.4529C4.8618 10.8061 5.0384 11.2321 5.0384 11.7308V15.1923C5.0384 15.691 4.8618 16.1169 4.5086 16.4701C4.1554 16.8233 3.72944 17 3.23073 17H1.8077ZM1.8077 15.5H3.23073C3.32048 15.5 3.3942 15.4711 3.4519 15.4134C3.5096 15.3557 3.53845 15.282 3.53845 15.1923V11.7308C3.53845 11.641 3.5096 11.5673 3.4519 11.5096C3.3942 11.4519 3.32048 11.423 3.23073 11.423H1.49997V15.1923C1.49997 15.282 1.52883 15.3557 1.58653 15.4134C1.64423 15.4711 1.71795 15.5 1.8077 15.5ZM13.7692 15.5H15.1923C15.282 15.5 15.3557 15.4711 15.4134 15.4134C15.4711 15.3557 15.5 15.282 15.5 15.1923V11.423H13.7692C13.6795 11.423 13.6058 11.4519 13.5481 11.5096C13.4904 11.5673 13.4615 11.641 13.4615 11.7308V15.1923C13.4615 15.282 13.4904 15.3557 13.5481 15.4134C13.6058 15.4711 13.6795 15.5 13.7692 15.5ZM1.8077 15.5H1.49997H3.53845H1.8077ZM13.7692 15.5H13.4615H15.5H13.7692Z" fill="#1C1B1F"/>
</svg>
