<svg width="32" height="19" viewBox="0 0 32 19" fill="none" xmlns="http://www.w3.org/2000/svg">
<path d="M3.01379 18.1805C2.55085 18.5138 2.074 18.5462 1.58325 18.2777C1.09253 18.0092 0.847168 17.5971 0.847168 17.0416V2.29159C0.847168 1.73603 1.09253 1.32631 1.58325 1.06242C2.074 0.798532 2.55085 0.828628 3.01379 1.15271L13.7638 8.5138C14.1898 8.79157 14.4027 9.17584 14.4027 9.66659C14.4027 10.1573 14.1898 10.5416 13.7638 10.8194L3.01379 18.1805ZM19.8749 18.1805C19.412 18.5138 18.9351 18.5462 18.4444 18.2777C17.9537 18.0092 17.7083 17.5971 17.7083 17.0416V2.29159C17.7083 1.73603 17.9537 1.32631 18.4444 1.06242C18.9351 0.798532 19.412 0.828628 19.8749 1.15271L30.625 8.5138C31.0509 8.79157 31.2638 9.17584 31.2638 9.66659C31.2638 10.1573 31.0509 10.5416 30.625 10.8194L19.8749 18.1805Z" fill="black"/>
</svg>
