<svg width="15" height="18" viewBox="0 0 15 18" fill="none" xmlns="http://www.w3.org/2000/svg">
<path d="M1.49997 15.9998H4.84615V10.0575H10.1538V15.9998H13.5V6.99981L7.49997 2.48058L1.49997 6.99981V15.9998ZM1.49997 17.4998C1.09101 17.4998 0.738775 17.352 0.443275 17.0565C0.147758 16.761 0 16.4088 0 15.9998V6.99981C0 6.76308 0.0529582 6.5388 0.158875 6.32698C0.264775 6.11517 0.411175 5.94073 0.598075 5.80368L6.59808 1.28446C6.73653 1.18318 6.8808 1.10882 7.0309 1.06138C7.181 1.01395 7.33736 0.990234 7.49997 0.990234C7.66259 0.990234 7.81895 1.01395 7.96905 1.06138C8.11915 1.10882 8.26342 1.18318 8.40187 1.28446L14.4019 5.80368C14.5888 5.94073 14.7352 6.11517 14.8411 6.32698C14.947 6.5388 15 6.76308 15 6.99981V15.9998C15 16.4088 14.8522 16.761 14.5567 17.0565C14.2612 17.352 13.9089 17.4998 13.5 17.4998H8.65382V11.5575H6.34613V17.4998H1.49997Z" fill="#1C1B1F"/>
</svg>
