<svg width="15" height="17" viewBox="0 0 15 17" fill="none" xmlns="http://www.w3.org/2000/svg">
<path d="M1.49997 15.4998H4.84615V9.55751H10.1538V15.4998H13.5V6.49981L7.49997 1.98058L1.49997 6.49981V15.4998ZM1.49997 16.9998C1.09101 16.9998 0.738775 16.852 0.443275 16.5565C0.147758 16.261 0 15.9088 0 15.4998V6.49981C0 6.26308 0.0529582 6.0388 0.158875 5.82698C0.264775 5.61517 0.411175 5.44073 0.598075 5.30368L6.59808 0.784459C6.73653 0.683176 6.8808 0.608818 7.0309 0.561385C7.181 0.513951 7.33736 0.490234 7.49997 0.490234C7.66259 0.490234 7.81895 0.513951 7.96905 0.561385C8.11915 0.608818 8.26342 0.683176 8.40187 0.784459L14.4019 5.30368C14.5888 5.44073 14.7352 5.61517 14.8411 5.82698C14.947 6.0388 15 6.26308 15 6.49981V15.4998C15 15.9088 14.8522 16.261 14.5567 16.5565C14.2612 16.852 13.9089 16.9998 13.5 16.9998H8.65382V11.0575H6.34613V16.9998H1.49997Z" fill="#1C1B1F"/>
</svg>
