<svg width="80" height="80" viewBox="0 0 80 80" fill="none" xmlns="http://www.w3.org/2000/svg">
<circle cx="40" cy="40" r="40" fill="#7A67F5"/>
<circle cx="40" cy="40" r="34.5" stroke="white"/>
<path d="M21.7041 43.328V32.592H25.0161C27.4321 32.592 28.6001 33.744 28.6001 35.76C28.6001 37.872 27.2241 39.024 25.1761 39.024H22.9841V43.328H21.7041ZM22.9841 37.968H24.9201C26.5841 37.968 27.2401 37.28 27.2401 35.84C27.2401 34.32 26.6321 33.664 24.8881 33.664H22.9841V37.968ZM32.104 43.472C30.664 43.472 29.624 42.736 29.624 41.248C29.624 39.856 30.52 39.12 32.04 38.944L34.184 38.688V37.856C34.184 36.624 33.64 36.304 32.216 36.304C31.448 36.304 30.824 36.416 30.328 36.56V35.68C31.016 35.392 31.784 35.248 32.696 35.248C34.44 35.248 35.416 35.968 35.416 37.584V43.328H34.424L34.296 42.64H34.216C33.848 43.088 33.176 43.472 32.104 43.472ZM32.408 42.512C33.144 42.512 33.848 42.272 34.184 41.936V39.6L32.36 39.808C31.384 39.904 30.904 40.304 30.904 41.216C30.904 42.08 31.496 42.512 32.408 42.512ZM40.0989 43.472C38.5469 43.472 37.6669 42.688 37.6669 41.152V35.392H38.8989V40.976C38.8989 42 39.2669 42.416 40.4349 42.416C41.2829 42.416 41.9869 42.112 42.6429 41.792V35.392H43.8589V43.328H42.8029L42.6909 42.608H42.6269C41.9069 43.104 41.0589 43.472 40.0989 43.472ZM48.2153 43.456C47.1753 43.456 46.3113 43.264 45.6553 42.896V41.92C46.3433 42.176 46.9193 42.416 48.0393 42.416C49.3033 42.416 49.8153 41.968 49.8153 41.248C49.8153 40.512 49.4473 40.192 48.4393 39.904L47.6553 39.696C46.5033 39.376 45.7193 38.848 45.7193 37.504C45.7193 36.16 46.5993 35.248 48.4233 35.248C49.4793 35.248 50.1673 35.488 50.5833 35.712V36.704C50.1673 36.496 49.3673 36.288 48.4873 36.288C47.4153 36.288 46.8873 36.656 46.8873 37.392C46.8873 38.08 47.2233 38.368 48.0713 38.608L48.8713 38.832C50.3913 39.232 51.0153 39.744 51.0153 41.12C51.0153 42.624 49.9593 43.456 48.2153 43.456ZM56.1039 43.472C53.6079 43.472 52.3439 41.952 52.3439 39.472V39.248C52.3439 36.48 53.9759 35.248 55.7999 35.248C57.9759 35.248 58.9999 36.512 58.9999 38.976V39.664H53.5919C53.6559 41.648 54.5999 42.416 56.2959 42.416C57.3519 42.416 58.0559 42.16 58.7759 41.824V42.736C58.2959 43.072 57.3839 43.472 56.1039 43.472ZM55.7679 36.24C54.7759 36.24 53.7199 36.816 53.5919 38.688H57.7199C57.7199 36.96 57.0639 36.24 55.7679 36.24Z" fill="white"/>
</svg>
