<svg width="17" height="12" viewBox="0 0 17 12" fill="none" xmlns="http://www.w3.org/2000/svg">
<path fill-rule="evenodd" clip-rule="evenodd" d="M10.1831 0.183058C10.4271 -0.0610194 10.8229 -0.0610194 11.0669 0.183058L12.9419 2.05806C13.186 2.30214 13.186 2.69786 12.9419 2.94194L11.0669 4.81694C10.8229 5.06102 10.4271 5.06102 10.1831 4.81694C9.93898 4.57286 9.93898 4.17714 10.1831 3.93306L10.9911 3.125H3.75097C3.08837 3.12721 2.45352 3.39141 1.98497 3.85996C1.51641 4.32852 1.25221 4.96337 1.25 5.62598V6.25C1.25 6.59518 0.970178 6.875 0.625 6.875C0.279822 6.875 0 6.59518 0 6.25V5.625L2.79397e-06 5.62313C0.00296891 4.62998 0.398813 3.67835 1.10108 2.97608C1.80335 2.27381 2.75498 1.87797 3.74813 1.875L3.75 1.875H10.9911L10.1831 1.06694C9.93898 0.822864 9.93898 0.427136 10.1831 0.183058ZM15.625 5C15.9702 5 16.25 5.27982 16.25 5.625V6.25L16.25 6.25187C16.247 7.24502 15.8512 8.19665 15.1489 8.89892C14.4466 9.60119 13.495 9.99703 12.5019 10L12.5 10H5.25888L6.06694 10.8081C6.31102 11.0521 6.31102 11.4479 6.06694 11.6919C5.82286 11.936 5.42714 11.936 5.18306 11.6919L3.30806 9.81694C3.06398 9.57286 3.06398 9.17714 3.30806 8.93306L5.18306 7.05806C5.42714 6.81398 5.82286 6.81398 6.06694 7.05806C6.31102 7.30214 6.31102 7.69786 6.06694 7.94194L5.25888 8.75H12.4991C13.1617 8.74777 13.7965 8.48358 14.265 8.01503C14.7336 7.54645 14.9978 6.91155 15 6.24889V5.625C15 5.27982 15.2798 5 15.625 5Z" fill="#1F1F1F"/>
</svg>
