<svg width="20" height="33" viewBox="0 0 20 33" fill="none" xmlns="http://www.w3.org/2000/svg">
<circle cx="10" cy="10" r="10" fill="#7A67F5"/>
<mask id="mask0_118_836" style="mask-type:alpha" maskUnits="userSpaceOnUse" x="3" y="3" width="14" height="14">
<rect x="3" y="3" width="14" height="14" fill="#D9D9D9"/>
</mask>
<g mask="url(#mask0_118_836)">
<path d="M5.33333 14.0833C5.16806 14.0833 5.02951 14.0274 4.91771 13.9156C4.8059 13.8038 4.75 13.6653 4.75 13.5C4.75 13.3347 4.8059 13.1962 4.91771 13.0844C5.02951 12.9726 5.16806 12.9167 5.33333 12.9167H7.66667C7.83194 12.9167 7.97049 12.9726 8.08229 13.0844C8.1941 13.1962 8.25 13.3347 8.25 13.5C8.25 13.6653 8.1941 13.8038 8.08229 13.9156C7.97049 14.0274 7.83194 14.0833 7.66667 14.0833H5.33333ZM5.33333 7.08333C5.16806 7.08333 5.02951 7.02743 4.91771 6.91562C4.8059 6.80382 4.75 6.66528 4.75 6.5C4.75 6.33472 4.8059 6.19618 4.91771 6.08438C5.02951 5.97257 5.16806 5.91667 5.33333 5.91667H10C10.1653 5.91667 10.3038 5.97257 10.4156 6.08438C10.5274 6.19618 10.5833 6.33472 10.5833 6.5C10.5833 6.66528 10.5274 6.80382 10.4156 6.91562C10.3038 7.02743 10.1653 7.08333 10 7.08333H5.33333ZM10 15.25C9.83472 15.25 9.69618 15.1941 9.58438 15.0823C9.47257 14.9705 9.41667 14.8319 9.41667 14.6667V12.3333C9.41667 12.1681 9.47257 12.0295 9.58438 11.9177C9.69618 11.8059 9.83472 11.75 10 11.75C10.1653 11.75 10.3038 11.8059 10.4156 11.9177C10.5274 12.0295 10.5833 12.1681 10.5833 12.3333V12.9167H14.6667C14.8319 12.9167 14.9705 12.9726 15.0823 13.0844C15.1941 13.1962 15.25 13.3347 15.25 13.5C15.25 13.6653 15.1941 13.8038 15.0823 13.9156C14.9705 14.0274 14.8319 14.0833 14.6667 14.0833H10.5833V14.6667C10.5833 14.8319 10.5274 14.9705 10.4156 15.0823C10.3038 15.1941 10.1653 15.25 10 15.25ZM7.66667 11.75C7.50139 11.75 7.36285 11.6941 7.25104 11.5823C7.13924 11.4705 7.08333 11.3319 7.08333 11.1667V10.5833H5.33333C5.16806 10.5833 5.02951 10.5274 4.91771 10.4156C4.8059 10.3038 4.75 10.1653 4.75 10C4.75 9.83472 4.8059 9.69618 4.91771 9.58438C5.02951 9.47257 5.16806 9.41667 5.33333 9.41667H7.08333V8.83333C7.08333 8.66806 7.13924 8.52951 7.25104 8.41771C7.36285 8.3059 7.50139 8.25 7.66667 8.25C7.83194 8.25 7.97049 8.3059 8.08229 8.41771C8.1941 8.52951 8.25 8.66806 8.25 8.83333V11.1667C8.25 11.3319 8.1941 11.4705 8.08229 11.5823C7.97049 11.6941 7.83194 11.75 7.66667 11.75ZM10 10.5833C9.83472 10.5833 9.69618 10.5274 9.58438 10.4156C9.47257 10.3038 9.41667 10.1653 9.41667 10C9.41667 9.83472 9.47257 9.69618 9.58438 9.58438C9.69618 9.47257 9.83472 9.41667 10 9.41667H14.6667C14.8319 9.41667 14.9705 9.47257 15.0823 9.58438C15.1941 9.69618 15.25 9.83472 15.25 10C15.25 10.1653 15.1941 10.3038 15.0823 10.4156C14.9705 10.5274 14.8319 10.5833 14.6667 10.5833H10ZM12.3333 8.25C12.1681 8.25 12.0295 8.1941 11.9177 8.08229C11.8059 7.97049 11.75 7.83194 11.75 7.66667V5.33333C11.75 5.16806 11.8059 5.02951 11.9177 4.91771C12.0295 4.8059 12.1681 4.75 12.3333 4.75C12.4986 4.75 12.6372 4.8059 12.749 4.91771C12.8608 5.02951 12.9167 5.16806 12.9167 5.33333V5.91667H14.6667C14.8319 5.91667 14.9705 5.97257 15.0823 6.08438C15.1941 6.19618 15.25 6.33472 15.25 6.5C15.25 6.66528 15.1941 6.80382 15.0823 6.91562C14.9705 7.02743 14.8319 7.08333 14.6667 7.08333H12.9167V7.66667C12.9167 7.83194 12.8608 7.97049 12.749 8.08229C12.6372 8.1941 12.4986 8.25 12.3333 8.25Z" fill="white"/>
</g>
<path d="M9.88766 27.38H8.61766V30.33H7.43766V23.88H8.61766V26.42H9.88766V27.38ZM6.12766 24.56C6.11766 27.13 4.27766 28.78 2.10766 29.33L1.52766 28.4C3.01766 28.14 4.57766 27.09 4.86766 25.53H1.97766V24.56H6.12766ZM8.83766 32.53H2.88766V29.66H4.06766V31.6H8.83766V32.53ZM17.67 29.04H16.5V28.15H14.86V27.19H16.5V26.34H14.99V25.38H16.5V23.88H17.67V29.04ZM17.68 32.8H16.5V30.43H11.64V29.5H17.68V32.8ZM14.86 24.41C14.77 26.89 13.25 28.33 10.91 29.07L10.3 28.13C11.86 27.79 13.25 26.86 13.57 25.38H10.73V24.41H14.86Z" fill="#7A67F5"/>
</svg>
