<svg width="20" height="20" viewBox="0 0 20 20" fill="none" xmlns="http://www.w3.org/2000/svg">
<circle cx="10" cy="10" r="10" fill="#7A67F5"/>
<mask id="mask0_101_2024" style="mask-type:alpha" maskUnits="userSpaceOnUse" x="3" y="3" width="14" height="14">
<rect x="3" y="3" width="14" height="14" fill="#D9D9D9"/>
</mask>
<g mask="url(#mask0_101_2024)">
<path d="M11.9542 14.8424C11.7597 14.9201 11.5799 14.8958 11.4146 14.7694C11.2493 14.6431 11.1667 14.4681 11.1667 14.2444C11.1667 14.1375 11.1983 14.0427 11.2615 13.9601C11.3247 13.8774 11.4049 13.8167 11.5021 13.7778C12.2799 13.4667 12.9045 12.9708 13.376 12.2903C13.8476 11.6097 14.0833 10.8417 14.0833 9.98611C14.0833 9.13056 13.8476 8.3625 13.376 7.68195C12.9045 7.00139 12.2799 6.50556 11.5021 6.19445C11.3951 6.15556 11.3125 6.09236 11.2542 6.00486C11.1958 5.91736 11.1667 5.82014 11.1667 5.7132C11.1667 5.49931 11.2493 5.32917 11.4146 5.20278C11.5799 5.07639 11.7597 5.05209 11.9542 5.12986C12.9458 5.52847 13.7431 6.16528 14.3458 7.04028C14.9486 7.91528 15.25 8.89722 15.25 9.98611C15.25 11.075 14.9486 12.0569 14.3458 12.9319C13.7431 13.8069 12.9458 14.4438 11.9542 14.8424ZM5.33333 11.7507C5.16806 11.7507 5.02951 11.6948 4.91771 11.583C4.8059 11.4712 4.75 11.3326 4.75 11.1674V8.83403C4.75 8.66875 4.8059 8.53021 4.91771 8.41841C5.02951 8.3066 5.16806 8.2507 5.33333 8.2507H7.08333L9.00833 6.3257C9.19306 6.14097 9.40451 6.09965 9.64271 6.20174C9.8809 6.30382 10 6.48611 10 6.74861V13.2528C10 13.5153 9.8809 13.6976 9.64271 13.7997C9.40451 13.9017 9.19306 13.8604 9.00833 13.6757L7.08333 11.7507H5.33333ZM11.1667 12.334V7.6382C11.6042 7.84236 11.9566 8.15834 12.224 8.58611C12.4913 9.01389 12.625 9.48542 12.625 10.0007C12.625 10.516 12.4913 10.9826 12.224 11.4007C11.9566 11.8188 11.6042 12.1299 11.1667 12.334ZM8.83333 8.1632L7.57917 9.41736H5.91667V10.584H7.57917L8.83333 11.8382V8.1632Z" fill="white"/>
</g>
</svg>
