<svg width="20" height="33" viewBox="0 0 20 33" fill="none" xmlns="http://www.w3.org/2000/svg">
<circle cx="10" cy="10" r="10" fill="#7A67F5"/>
<mask id="mask0_118_820" style="mask-type:alpha" maskUnits="userSpaceOnUse" x="3" y="3" width="14" height="14">
<rect x="3" y="3" width="14" height="14" fill="#D9D9D9"/>
</mask>
<g mask="url(#mask0_118_820)">
<path d="M11.9542 14.8424C11.7597 14.9202 11.5799 14.8959 11.4146 14.7695C11.2493 14.6431 11.1667 14.4681 11.1667 14.2445C11.1667 14.1375 11.1983 14.0427 11.2615 13.9601C11.3247 13.8775 11.4049 13.8167 11.5021 13.7778C12.2799 13.4667 12.9045 12.9709 13.376 12.2903C13.8476 11.6098 14.0833 10.8417 14.0833 9.98614C14.0833 9.13059 13.8476 8.36253 13.376 7.68198C12.9045 7.00142 12.2799 6.50559 11.5021 6.19448C11.3951 6.15559 11.3125 6.09239 11.2542 6.00489C11.1958 5.91739 11.1667 5.82017 11.1667 5.71323C11.1667 5.49934 11.2493 5.3292 11.4146 5.20281C11.5799 5.07642 11.7597 5.05212 11.9542 5.12989C12.9458 5.5285 13.7431 6.16531 14.3458 7.04031C14.9486 7.91531 15.25 8.89726 15.25 9.98614C15.25 11.075 14.9486 12.057 14.3458 12.932C13.7431 13.807 12.9458 14.4438 11.9542 14.8424ZM5.33333 11.7507C5.16806 11.7507 5.02951 11.6948 4.91771 11.583C4.8059 11.4712 4.75 11.3327 4.75 11.1674V8.83406C4.75 8.66878 4.8059 8.53024 4.91771 8.41844C5.02951 8.30663 5.16806 8.25073 5.33333 8.25073H7.08333L9.00833 6.32573C9.19306 6.141 9.40451 6.09969 9.64271 6.20177C9.8809 6.30385 10 6.48614 10 6.74864V13.2528C10 13.5153 9.8809 13.6976 9.64271 13.7997C9.40451 13.9018 9.19306 13.8605 9.00833 13.6757L7.08333 11.7507H5.33333ZM11.1667 12.3341V7.63823C11.6042 7.84239 11.9566 8.15837 12.224 8.58614C12.4913 9.01392 12.625 9.48545 12.625 10.0007C12.625 10.516 12.4913 10.9827 12.224 11.4007C11.9566 11.8188 11.6042 12.1299 11.1667 12.3341ZM8.83333 8.16323L7.57917 9.41739H5.91667V10.5841H7.57917L8.83333 11.8382V8.16323Z" fill="white"/>
</g>
<path d="M8.66766 27.06H6.23766V27.68H9.69766V28.62H1.64766V27.68H5.06766V27.06H2.67766V23.95H3.84766V24.7H7.50766V23.93H8.66766V27.06ZM8.99766 32.75H2.62766V30.52H7.51766V30.02H2.59766V29.09H8.67766V31.34H3.78766V31.8H8.99766V32.75ZM7.50766 26.17V25.59H3.84766V26.17H7.50766ZM17.33 32.68H11.32V29.93H12.27V29.28H10.3V28.35H18.35V29.28H16.34V29.93H17.33V32.68ZM17.47 27.83H11.36V25.54H16.1V24.99H11.33V24.11H17.28V26.38H12.53V26.93H17.47V27.83ZM16.15 31.79V30.81H12.48V31.79H16.15ZM13.44 29.28V29.93H15.17V29.28H13.44Z" fill="#7A67F5"/>
</svg>
